<svg width="184" height="174" viewBox="0 0 184 174" fill="none" xmlns="http://www.w3.org/2000/svg">
<path d="M164.32 28.7725L163.11 29.7025L164.22 31.1525L163.97 31.3325L162.86 29.8925L156.96 34.4225L156.77 34.1825L162.68 29.6525L162.29 29.1525L162.54 28.9625L162.92 29.4625L164.18 28.4625C165 27.8325 165.77 27.7625 166.3 28.4625C166.511 28.7531 166.623 29.1035 166.62 29.4625L166.35 29.6625C166.354 29.3079 166.253 28.96 166.06 28.6625C165.63 28.1225 164.99 28.2425 164.32 28.7725Z" fill="#1D1D1B" stroke="#1D1D1B" stroke-width="0.5" stroke-miterlimit="10"/>
<path d="M167.65 35.8423C168.087 36.5057 168.32 37.2828 168.32 38.0773C168.32 38.8719 168.087 39.649 167.65 40.3123L169.6 39.0323L169.77 39.2923L163.29 43.5423L163.12 43.2823L165.12 42.0023C164.41 42.1312 163.679 42.0657 163.003 41.8128C162.327 41.5599 161.733 41.1289 161.282 40.5656C160.831 40.0024 160.541 39.3277 160.443 38.613C160.344 37.8984 160.441 37.1704 160.722 36.5061C161.004 35.8419 161.459 35.2661 162.041 34.8398C162.623 34.4135 163.31 34.1525 164.028 34.0845C164.746 34.0164 165.469 34.1439 166.121 34.4534C166.773 34.7628 167.329 35.2427 167.73 35.8423H167.65ZM161.17 40.0923C161.577 40.702 162.156 41.1776 162.833 41.4593C163.511 41.7409 164.256 41.8162 164.976 41.6755C165.696 41.5348 166.358 41.1844 166.879 40.6685C167.4 40.1526 167.757 39.494 167.906 38.7757C168.054 38.0574 167.986 37.3113 167.711 36.6313C167.437 35.9512 166.967 35.3675 166.362 34.9536C165.756 34.5397 165.042 34.314 164.308 34.3049C163.575 34.2957 162.855 34.5036 162.24 34.9023C161.828 35.1722 161.474 35.5207 161.197 35.9279C160.92 36.3351 160.726 36.7929 160.627 37.2751C160.528 37.7573 160.524 38.2544 160.618 38.7378C160.711 39.2213 160.898 39.6816 161.17 40.0923Z" fill="#1D1D1B" stroke="#1D1D1B" stroke-width="0.5" stroke-miterlimit="10"/>
<path d="M165.87 44.6623C165.499 45.0614 165.27 45.572 165.219 46.1146C165.169 46.6572 165.299 47.2014 165.59 47.6623C166.25 48.9323 167.21 49.3222 168 48.9122C169.17 48.3022 168.93 47.1823 168.83 45.3023C168.78 44.3923 168.65 43.1823 169.7 42.6323C170.189 42.4411 170.734 42.4504 171.217 42.6582C171.7 42.8659 172.082 43.2553 172.28 43.7423C172.565 44.2085 172.663 44.7651 172.556 45.3008C172.448 45.8366 172.142 46.3121 171.7 46.6323L171.56 46.3623C171.93 46.0794 172.182 45.6683 172.265 45.2095C172.349 44.7507 172.257 44.2773 172.01 43.8823C171.85 43.4653 171.534 43.1272 171.128 42.9404C170.723 42.7535 170.26 42.7327 169.84 42.8823C168.84 43.3923 169.11 44.5823 169.18 46.1323C169.23 47.2123 169.42 48.4922 168.18 49.1322C167.24 49.6222 166.09 49.1323 165.36 47.7623C165.032 47.2296 164.894 46.6017 164.968 45.9808C165.043 45.3598 165.325 44.7823 165.77 44.3423L165.87 44.6623Z" fill="#1D1D1B" stroke="#1D1D1B" stroke-width="0.5" stroke-miterlimit="10"/>
<path d="M173.88 55.6123L169.77 57.3323L169.65 57.0423L173.76 55.3323C175.76 54.4923 176.22 53.0623 175.65 51.7023C175.303 50.8989 174.657 50.2623 173.848 49.9281C173.04 49.5938 172.132 49.5881 171.32 49.9123L167.32 51.5623L167.2 51.2823L177.8 46.8623L177.92 47.1423L172.55 49.4223C173.274 49.3748 173.994 49.5623 174.603 49.9568C175.212 50.3514 175.677 50.932 175.93 51.6123C176.57 53.1123 176.01 54.7223 173.88 55.6123Z" fill="#1D1D1B" stroke="#1D1D1B" stroke-width="0.5" stroke-miterlimit="10"/>
<path d="M170.48 59.5623L170.38 59.2723L177.72 56.7823L177.82 57.0723L170.48 59.5623ZM179.56 55.9123C179.608 55.8951 179.659 55.8877 179.709 55.8905C179.76 55.8933 179.81 55.9062 179.856 55.9286C179.901 55.951 179.942 55.9824 179.975 56.0208C180.009 56.0592 180.034 56.1039 180.05 56.1523C180.082 56.2492 180.075 56.3547 180.03 56.4463C179.985 56.5379 179.906 56.6083 179.81 56.6423C179.76 56.668 179.705 56.6827 179.649 56.6854C179.593 56.688 179.538 56.6786 179.486 56.6577C179.434 56.6368 179.387 56.6049 179.348 56.5643C179.31 56.5237 179.28 56.4752 179.262 56.4221C179.244 56.3691 179.237 56.3128 179.243 56.2571C179.248 56.2013 179.266 56.1474 179.294 56.0991C179.322 56.0507 179.361 56.0089 179.407 55.9767C179.453 55.9445 179.505 55.9225 179.56 55.9123Z" fill="#1D1D1B" stroke="#1D1D1B" stroke-width="0.5" stroke-miterlimit="10"/>
<path d="M175.01 60.6524C175.773 60.4646 176.575 60.506 177.315 60.7714C178.055 61.0368 178.701 61.5144 179.171 62.1446C179.641 62.7748 179.915 63.5296 179.959 64.3146C180.003 65.0997 179.814 65.8802 179.416 66.5586C179.019 67.237 178.43 67.7832 177.724 68.129C177.018 68.4748 176.226 68.6048 175.446 68.5028C174.666 68.4008 173.934 68.0712 173.341 67.5554C172.747 67.0395 172.319 66.3602 172.11 65.6024C171.842 64.5616 171.996 63.4569 172.539 62.5296C173.083 61.6022 173.971 60.9274 175.01 60.6524ZM176.96 68.1924C177.677 68.0076 178.323 67.6142 178.816 67.0618C179.309 66.5095 179.628 65.8231 179.73 65.0898C179.833 64.3564 179.716 63.6091 179.394 62.9424C179.071 62.2758 178.558 61.7198 177.919 61.345C177.281 60.9702 176.545 60.7935 175.806 60.8372C175.067 60.8809 174.357 61.143 173.767 61.5904C173.177 62.0378 172.733 62.6503 172.491 63.3503C172.25 64.0503 172.221 64.8063 172.41 65.5224C172.661 66.4784 173.281 67.296 174.134 67.7963C174.986 68.2966 176.002 68.439 176.96 68.1924Z" fill="#1D1D1B" stroke="#1D1D1B" stroke-width="0.5" stroke-miterlimit="10"/>
<path d="M178.95 76.9724L174.54 77.6324L174.49 77.3324L178.9 76.6624C181.05 76.3424 181.84 75.0624 181.62 73.6124C181.479 72.747 181.007 71.9705 180.303 71.4477C179.599 70.9249 178.719 70.697 177.85 70.8124L173.6 71.4524V71.1524L181.27 69.9924V70.2824L179.17 70.6124C179.883 70.7448 180.536 71.1029 181.031 71.634C181.526 72.1651 181.838 72.8411 181.92 73.5624C182.16 75.1924 181.23 76.6224 178.95 76.9724Z" fill="#1D1D1B" stroke="#1D1D1B" stroke-width="0.5" stroke-miterlimit="10"/>
<path d="M179.51 95.4225L174.75 95.2825V94.9825L179.51 95.1225C181.21 95.1725 182.37 94.3625 182.41 92.8925C182.41 91.1925 180.89 89.9925 179.19 89.7725L174.9 89.6525V89.4225L179.67 89.5625C181.37 89.5625 182.52 88.8025 182.57 87.3325C182.62 85.6325 181.04 84.4425 179.35 84.2225L175.06 84.0925V83.7925L182.81 84.0125V84.3125L180.65 84.2625C181.292 84.4848 181.85 84.9 182.247 85.4513C182.645 86.0025 182.862 86.663 182.87 87.3425C182.855 88.0041 182.584 88.6341 182.114 89.1002C181.644 89.5663 181.012 89.8323 180.35 89.8425C181.021 90.0548 181.61 90.4715 182.033 91.0345C182.456 91.5974 182.693 92.2785 182.71 92.9825C182.68 94.5925 181.32 95.5225 179.51 95.4225Z" fill="#1D1D1B" stroke="#1D1D1B" stroke-width="0.5" stroke-miterlimit="10"/>
<path d="M181.62 102.092C181.492 102.87 181.14 103.594 180.607 104.175C180.075 104.756 179.384 105.168 178.62 105.362L180.91 105.732L180.86 106.042L173.22 104.802L173.27 104.492L175.58 104.872C174.968 104.489 174.472 103.947 174.144 103.304C173.816 102.661 173.667 101.941 173.715 101.221C173.762 100.501 174.004 99.8071 174.414 99.213C174.824 98.6189 175.386 98.1467 176.043 97.8466C176.699 97.5465 177.425 97.4295 178.142 97.5082C178.86 97.5869 179.542 97.8582 180.118 98.2934C180.694 98.7286 181.141 99.3116 181.413 99.9804C181.684 100.649 181.769 101.379 181.66 102.092H181.62ZM173.97 100.852C173.859 101.577 173.966 102.319 174.276 102.984C174.586 103.648 175.086 104.207 175.712 104.588C176.338 104.97 177.063 105.158 177.796 105.129C178.529 105.099 179.237 104.854 179.831 104.423C180.425 103.993 180.878 103.396 181.134 102.709C181.39 102.022 181.437 101.274 181.269 100.56C181.101 99.846 180.726 99.1976 180.19 98.6963C179.655 98.1949 178.983 97.8631 178.26 97.7423C177.774 97.6639 177.277 97.6822 176.798 97.7962C176.319 97.9102 175.868 98.1176 175.469 98.4066C175.07 98.6955 174.733 99.0603 174.476 99.48C174.218 99.8997 174.046 100.366 173.97 100.852Z" fill="#1D1D1B" stroke="#1D1D1B" stroke-width="0.5" stroke-miterlimit="10"/>
<path d="M179.1 112.022L178.88 111.822C179.142 111.625 179.326 111.342 179.4 111.022C179.77 109.552 178.06 108.642 176.99 108.372L172.52 107.242L172.6 106.942L180.11 108.852L180.04 109.132L178.63 108.792C179.036 109.008 179.36 109.351 179.553 109.768C179.746 110.185 179.798 110.653 179.7 111.102C179.612 111.469 179.4 111.794 179.1 112.022Z" fill="#1D1D1B" stroke="#1D1D1B" stroke-width="0.5" stroke-miterlimit="10"/>
<path d="M174.82 115.102L169.52 117.102L169.65 116.732L174.65 114.732L173.8 112.852L171.19 111.972L171.29 111.682L182.21 115.422L182.11 115.712L174.23 113.072L177.01 119.192L176.86 119.612L174.82 115.102Z" fill="#1D1D1B" stroke="#1D1D1B" stroke-width="0.5" stroke-miterlimit="10"/>
<path d="M169.59 126.562L172.59 119.742C172.152 119.539 171.677 119.427 171.195 119.414C170.712 119.401 170.232 119.487 169.784 119.667C169.336 119.847 168.93 120.117 168.59 120.46C168.251 120.803 167.985 121.212 167.81 121.662C167.513 122.256 167.403 122.926 167.496 123.583C167.589 124.241 167.88 124.854 168.33 125.342L168.14 125.582C167.636 125.051 167.308 124.377 167.199 123.653C167.09 122.929 167.205 122.189 167.53 121.532C167.945 120.548 168.734 119.77 169.723 119.367C170.713 118.965 171.821 118.972 172.805 119.387C173.789 119.802 174.568 120.591 174.97 121.581C175.372 122.57 175.365 123.678 174.95 124.662C174.735 125.141 174.426 125.572 174.042 125.929C173.657 126.286 173.205 126.563 172.711 126.742C172.218 126.921 171.694 126.999 171.169 126.972C170.645 126.944 170.132 126.812 169.66 126.582L169.59 126.562ZM172.85 119.862L169.99 126.422C170.856 126.78 171.827 126.785 172.697 126.438C173.568 126.091 174.268 125.418 174.65 124.562C175.034 123.7 175.06 122.721 174.723 121.84C174.385 120.958 173.712 120.247 172.85 119.862Z" fill="#1D1D1B" stroke="#1D1D1B" stroke-width="0.5" stroke-miterlimit="10"/>
<path d="M170.81 131.982L171.46 130.762L164.89 127.262L165.03 126.992L171.61 130.492L172.04 129.682L172.31 129.822L171.88 130.642L173.88 131.722L173.73 131.992L171.73 130.912L171.09 132.122L170.81 131.982Z" fill="#1D1D1B" stroke="#1D1D1B" stroke-width="0.5" stroke-miterlimit="10"/>
<path d="M163.32 130.062L163.48 129.802L170.18 133.682L170.03 133.942L163.32 130.062ZM172.05 134.492C172.136 134.544 172.198 134.627 172.224 134.724C172.25 134.821 172.238 134.924 172.19 135.012C172.153 135.081 172.096 135.136 172.026 135.172C171.957 135.208 171.879 135.222 171.801 135.213C171.724 135.204 171.651 135.172 171.592 135.121C171.533 135.07 171.491 135.002 171.471 134.927C171.451 134.852 171.453 134.772 171.479 134.699C171.504 134.625 171.551 134.56 171.613 134.514C171.676 134.467 171.75 134.44 171.828 134.436C171.906 134.432 171.983 134.452 172.05 134.492Z" fill="#1D1D1B" stroke="#1D1D1B" stroke-width="0.5" stroke-miterlimit="10"/>
<path d="M162.21 140.052L158.51 137.562L158.68 137.312L162.38 139.792C164.19 141.002 165.63 140.592 166.44 139.372C166.92 138.639 167.096 137.748 166.93 136.887C166.764 136.026 166.269 135.264 165.55 134.762L161.99 132.422L162.16 132.162L168.59 136.482L168.43 136.722L166.65 135.552C167.083 136.127 167.321 136.825 167.33 137.544C167.339 138.264 167.118 138.967 166.7 139.552C165.78 140.912 164.13 141.332 162.21 140.052Z" fill="#1D1D1B" stroke="#1D1D1B" stroke-width="0.5" stroke-miterlimit="10"/>
<path d="M152.32 143.042C151.2 142.122 151.39 140.562 152.59 139.102C153.79 137.642 155.28 137.152 156.41 138.102C156.738 138.411 156.978 138.802 157.107 139.234C157.235 139.666 157.246 140.124 157.14 140.562C157.58 140.272 157.97 140.202 158.29 140.462C158.44 140.629 158.537 140.838 158.567 141.061C158.598 141.284 158.56 141.511 158.46 141.712C158.933 141.52 159.449 141.459 159.954 141.535C160.458 141.61 160.934 141.82 161.33 142.142C161.927 142.663 162.294 143.4 162.35 144.19C162.406 144.981 162.147 145.762 161.63 146.362C161.324 146.74 160.938 147.044 160.5 147.252L159.5 148.742L159.26 148.552L160.04 147.432C159.597 147.556 159.13 147.569 158.68 147.472C158.231 147.374 157.812 147.168 157.46 146.872C156.865 146.351 156.5 145.617 156.444 144.829C156.388 144.041 156.645 143.262 157.16 142.662C157.441 142.337 157.78 142.066 158.16 141.862C158.37 141.342 158.37 140.862 158.16 140.692C157.95 140.522 157.24 140.772 156.49 141.692C155.11 143.242 153.54 144.062 152.32 143.042ZM152.51 142.812C153.63 143.722 155.03 142.882 156.19 141.472C156.4 141.222 156.59 141.012 156.78 140.822C156.91 140.39 156.926 139.932 156.826 139.492C156.726 139.052 156.514 138.646 156.21 138.312C155.21 137.482 153.88 138.022 152.83 139.312C151.78 140.602 151.49 141.982 152.49 142.812H152.51ZM157.37 142.812C157.067 143.223 156.892 143.714 156.866 144.223C156.839 144.733 156.963 145.239 157.221 145.679C157.479 146.119 157.861 146.474 158.318 146.7C158.776 146.925 159.29 147.012 159.796 146.948C160.302 146.885 160.779 146.675 161.167 146.343C161.555 146.012 161.837 145.574 161.979 145.084C162.121 144.594 162.116 144.073 161.965 143.586C161.814 143.099 161.524 142.666 161.13 142.342C160.85 142.117 160.528 141.95 160.183 141.853C159.838 141.755 159.476 141.728 159.12 141.774C158.764 141.82 158.421 141.937 158.112 142.119C157.802 142.301 157.533 142.544 157.32 142.832L157.37 142.812Z" fill="#1D1D1B" stroke="#1D1D1B" stroke-width="0.5" stroke-miterlimit="10"/>
<path d="M49.5897 78.5823C49.5061 78.5815 49.4238 78.5609 49.3497 78.5223C49.2447 78.4649 49.1638 78.3718 49.1216 78.2599C49.0794 78.148 49.0787 78.0247 49.1197 77.9123L49.0497 77.7723C48.8739 77.3206 48.7988 76.836 48.8297 76.3523C48.8297 71.8423 48.8297 67.3523 48.8297 62.8023C48.7798 62.5136 48.7886 62.2178 48.8556 61.9326C48.9226 61.6474 49.0465 61.3786 49.2197 61.1423C49.4547 60.9701 49.7216 60.8462 50.0047 60.7775C50.2879 60.7089 50.5819 60.6969 50.8697 60.7423C59.9097 60.7423 68.9497 60.7423 77.9897 60.7423C78.2997 60.7423 78.5997 60.7423 78.9097 60.7423C79.7301 60.8441 80.5628 60.7656 81.3497 60.5123C81.5032 60.459 81.6662 60.4386 81.8282 60.4524C81.9901 60.4662 82.1473 60.5139 82.2897 60.5923C82.6064 60.7204 82.9499 60.7685 83.2897 60.7323H83.5197H85.6097C87.0697 60.7323 88.6097 60.7323 90.0597 60.7323C90.8197 60.7323 91.5697 60.7323 92.3097 60.7323C93.7725 60.8682 95.2476 60.7703 96.6797 60.4423C96.9078 60.3966 97.1448 60.432 97.3497 60.5423C97.7488 60.6903 98.175 60.7516 98.5997 60.7223H127.82C129.4 60.7223 129.82 61.1123 129.82 62.7223V65.9223C129.82 69.1123 129.82 72.3123 129.82 75.5023C129.82 75.6523 129.82 75.8023 129.82 75.9423C129.889 76.6245 129.783 77.3132 129.51 77.9423C129.511 78.0075 129.499 78.0723 129.475 78.1329C129.451 78.1935 129.415 78.2487 129.37 78.2952C129.324 78.3418 129.27 78.3788 129.21 78.4041C129.149 78.4293 129.085 78.4423 129.02 78.4423C128.887 78.4423 128.76 78.3896 128.666 78.2958C128.572 78.2021 128.52 78.0749 128.52 77.9423C128.516 77.7832 128.55 77.6255 128.62 77.4823C128.815 76.9904 128.883 76.4576 128.82 75.9323C128.82 75.7823 128.82 75.6223 128.82 75.4623C128.82 72.2723 128.82 69.0723 128.82 65.8823V62.6823C128.82 61.6823 128.82 61.6823 127.82 61.6823H98.6397C98.1076 61.716 97.5741 61.6447 97.0697 61.4723L96.9497 61.4223H96.8797C95.3723 61.7676 93.8198 61.8722 92.2797 61.7323C91.5597 61.7323 90.8197 61.6723 90.1097 61.7323C88.5997 61.7823 87.1097 61.7323 85.6097 61.7323H83.5297H83.3197C82.81 61.7735 82.298 61.6876 81.8297 61.4823C81.7902 61.4733 81.7492 61.4733 81.7097 61.4823C80.7954 61.7847 79.8262 61.8836 78.8697 61.7723C78.5799 61.7568 78.2895 61.7568 77.9997 61.7723C68.9597 61.7723 59.9197 61.7723 50.8797 61.7723C50.5595 61.7455 50.2372 61.7794 49.9297 61.8723C49.8316 62.196 49.7977 62.5356 49.8297 62.8723C49.8297 67.3923 49.8297 71.8723 49.8297 76.4223C49.8076 76.7609 49.8517 77.1006 49.9597 77.4223C50.0583 77.5681 50.1167 77.7373 50.129 77.9129C50.1413 78.0885 50.1071 78.2642 50.0297 78.4223C49.9755 78.4835 49.9069 78.5303 49.83 78.5582C49.7532 78.5862 49.6705 78.5944 49.5897 78.5823Z" fill="black"/>
<path d="M127.91 120.802H50.7099C49.2199 120.802 48.8299 120.422 48.8299 118.922V109.422C48.8024 108.894 48.9091 108.368 49.1399 107.892C49.2036 107.776 49.3102 107.688 49.4373 107.649C49.5643 107.61 49.7016 107.622 49.8199 107.682C49.8783 107.712 49.9302 107.753 49.9725 107.803C50.0149 107.853 50.0468 107.91 50.0663 107.973C50.0859 108.035 50.0928 108.101 50.0865 108.166C50.0803 108.231 50.061 108.295 50.0299 108.352C49.8755 108.683 49.8068 109.048 49.8299 109.412V118.912C49.8299 119.792 49.8299 119.792 50.7099 119.792H127.91C128.79 119.792 128.79 119.792 128.79 118.912C128.79 118.032 128.79 117.122 128.79 116.232C128.79 114.112 128.79 111.922 128.79 109.782C128.79 109.202 128.79 108.612 128.79 108.032C128.795 107.901 128.849 107.777 128.942 107.684C129.035 107.591 129.159 107.537 129.29 107.532C129.356 107.532 129.422 107.545 129.484 107.571C129.545 107.597 129.601 107.635 129.647 107.682C129.694 107.73 129.73 107.786 129.755 107.848C129.779 107.91 129.791 107.976 129.79 108.042C129.79 108.602 129.79 109.172 129.79 109.742C129.87 111.912 129.85 114.112 129.79 116.242C129.79 117.132 129.79 118.022 129.79 118.912C129.79 120.422 129.39 120.802 127.91 120.802Z" fill="black"/>
<path d="M96.83 56.5223C96.7342 56.522 96.6405 56.4942 96.56 56.4423H96.5C96.1412 56.2857 95.7511 56.2138 95.36 56.2323H83.09C82.9032 56.2485 82.7187 56.2854 82.54 56.3423C82.2037 56.4789 81.8331 56.5068 81.48 56.4223C80.7737 56.2304 80.0383 56.1694 79.31 56.2423C78.9236 56.2622 78.5364 56.2622 78.15 56.2423C76.78 56.1723 76.29 55.8723 76.29 54.3523V41.8223C76.29 40.2323 76.68 39.8223 78.29 39.8223H100.4C101.98 39.8223 102.4 40.2023 102.4 41.8223V53.8223C102.4 55.9623 102.18 56.1923 100.03 56.2323H99.17C98.493 56.1375 97.8029 56.2237 97.17 56.4823C97.0643 56.5328 96.9447 56.5469 96.83 56.5223ZM95.37 55.2123C95.8688 55.1935 96.366 55.2786 96.83 55.4623C97.5735 55.2001 98.3678 55.1145 99.15 55.2123H99.92C100.364 55.2406 100.809 55.2001 101.24 55.0923C101.333 54.6691 101.364 54.2344 101.33 53.8023V41.8023C101.33 40.8023 101.33 40.8023 100.33 40.8023H78.26C77.26 40.8023 77.26 40.8023 77.26 41.8023V54.3223C77.26 55.1623 77.26 55.1623 78.17 55.2123C78.53 55.2123 78.89 55.2123 79.25 55.2123C80.0976 55.1307 80.9531 55.2121 81.77 55.4523C81.9306 55.441 82.0888 55.4073 82.24 55.3523C82.5048 55.2633 82.7809 55.2128 83.06 55.2023H95.34L95.37 55.2123Z" fill="black"/>
<path d="M128.99 108.042H106.67C106.3 108.042 105.82 108.122 105.57 107.932C104.73 107.332 104.12 107.862 103.48 108.232C103.166 108.427 102.875 108.655 102.61 108.912C100.291 110.882 97.5557 112.301 94.61 113.062C89.7282 114.368 84.5369 113.838 80.02 111.572C78.3663 110.744 76.8268 109.706 75.44 108.482C74.73 107.872 74.02 107.342 73.01 107.942C72.6891 108.054 72.3465 108.088 72.01 108.042H49.63C49.4014 107.559 49.295 107.026 49.32 106.492C49.32 97.8256 49.32 89.1322 49.32 80.4122C49.2053 79.6261 49.2948 78.8237 49.58 78.0822L49.75 77.9122C50.13 77.9122 50.5 77.9922 50.87 77.9922H71.69C72.1 77.9922 72.58 77.9222 72.88 78.1922C73.46 78.6922 73.88 78.2823 74.35 78.0623C74.7661 77.8036 75.1461 77.4908 75.48 77.1322C77.3594 75.4602 79.5283 74.1453 81.88 73.2522C84.5514 72.2493 87.3998 71.8035 90.25 71.9422C92.6854 72.034 95.0841 72.5659 97.33 73.5122C99.6278 74.4648 101.737 75.8193 103.56 77.5122C104.22 78.1222 104.97 78.6723 105.98 78.0623C106.301 77.9508 106.643 77.9165 106.98 77.9622H127.7C128.07 77.9622 128.45 77.9122 128.82 77.8822L128.96 77.9422C128.955 78.0094 128.972 78.0763 129.01 78.1322C129.242 78.6171 129.326 79.1599 129.25 79.6922C129.25 82.1989 129.25 84.7022 129.25 87.2022V94.7222C129.25 97.2222 129.19 99.7222 129.25 102.232C129.31 104.162 129.19 106.082 129.18 108.012" fill="#DDBB4E"/>
<path d="M89.2496 114.262C84.0267 114.246 78.9889 112.326 75.0796 108.862C74.3096 108.202 73.8896 107.992 73.2296 108.372C72.8983 108.536 72.5253 108.595 72.1596 108.542H49.3696L49.1896 108.272C48.9221 107.718 48.7951 107.107 48.8196 106.492V80.4223C48.8196 80.2723 48.8196 80.1123 48.8196 79.9523C48.736 79.2385 48.8501 78.5155 49.1496 77.8623L49.2296 77.7423L49.5696 77.4023H50.1696C50.4083 77.4342 50.6488 77.4509 50.8896 77.4523H71.8896C72.3577 77.3819 72.8348 77.4967 73.2196 77.7723C73.4196 77.9423 73.4996 77.9323 73.9196 77.6923L74.1396 77.5723C74.4144 77.4097 74.6638 77.2075 74.8796 76.9723L75.1596 76.7223C77.0842 75.0053 79.3032 73.6502 81.7096 72.7223C84.4585 71.6967 87.3905 71.254 90.3196 71.4223C92.8131 71.521 95.2687 72.0663 97.5696 73.0323C99.923 74.0223 102.083 75.4205 103.95 77.1623C104.66 77.8223 105.11 78.0523 105.77 77.6523C106.106 77.493 106.48 77.4306 106.85 77.4723H127.78C128.02 77.4705 128.261 77.4539 128.5 77.4223H128.99L129.53 77.6623V77.9823C129.784 78.4494 129.889 78.9836 129.83 79.5123V94.7723C129.83 95.5323 129.83 96.3023 129.83 97.0623C129.83 98.7723 129.83 100.532 129.83 102.262C129.83 103.472 129.83 104.692 129.83 105.862C129.83 106.602 129.83 107.332 129.83 108.072H129.08V108.572H106.43C106.03 108.628 105.624 108.555 105.27 108.362C104.83 108.042 104.56 108.182 103.99 108.522L103.72 108.682C103.514 108.816 103.32 108.966 103.14 109.132L102.93 109.312C100.542 111.328 97.7333 112.784 94.7096 113.572C92.9259 114.031 91.0914 114.263 89.2496 114.262ZM73.8296 107.182C74.5535 107.249 75.2287 107.576 75.7296 108.102C77.0861 109.293 78.5921 110.301 80.2096 111.102C84.6226 113.311 89.6905 113.83 94.4596 112.562C97.3384 111.811 100.013 110.428 102.29 108.512L102.48 108.342C102.71 108.128 102.961 107.937 103.23 107.772L103.48 107.632C103.804 107.345 104.216 107.177 104.649 107.156C105.081 107.134 105.508 107.26 105.86 107.512C106.032 107.539 106.207 107.539 106.38 107.512H128.74C128.74 106.942 128.74 106.362 128.74 105.782C128.74 104.622 128.81 103.422 128.74 102.242C128.69 100.492 128.74 98.7223 128.74 97.0123C128.74 96.2423 128.74 95.4823 128.74 94.7223V79.4723C128.773 79.1297 128.714 78.7845 128.57 78.4723H128.49C128.221 78.5039 127.95 78.5206 127.68 78.5223H106.68C106.504 78.4932 106.325 78.4932 106.15 78.5223C105.659 78.7938 105.087 78.8815 104.537 78.7697C103.988 78.6579 103.496 78.3539 103.15 77.9123C101.37 76.249 99.3124 74.9119 97.0696 73.9623C93.5441 72.4834 89.6726 72.03 85.9009 72.6545C82.1291 73.2791 78.6103 74.956 75.7496 77.4923L75.4896 77.7323C75.1975 78.0357 74.8602 78.2921 74.4896 78.4923L74.3096 78.5923C74.0495 78.8078 73.7224 78.9256 73.3846 78.9256C73.0469 78.9256 72.7197 78.8078 72.4596 78.5923C72.3596 78.5023 72.0596 78.5123 71.8196 78.5223H50.8196C50.5496 78.5223 50.2796 78.5223 50.0096 78.4723H49.9196C49.7533 78.9433 49.6986 79.4465 49.7596 79.9423C49.7596 80.1123 49.7596 80.2823 49.7596 80.4523V106.532C49.7449 106.888 49.7923 107.243 49.8996 107.582H72.1296C72.3081 107.615 72.4911 107.615 72.6696 107.582C73.0076 107.336 73.4116 107.197 73.8296 107.182Z" fill="black"/>
<path d="M104.86 108.032C104.732 108.033 104.609 107.984 104.517 107.897C104.424 107.809 104.368 107.69 104.36 107.562C104.363 107.159 104.45 106.76 104.616 106.392C104.781 106.023 105.021 105.693 105.32 105.422L105.62 105.062C108.812 100.91 110.248 95.6719 109.62 90.4724C109.243 86.7437 107.787 83.2059 105.43 80.2924C104.973 79.8003 104.72 79.1538 104.72 78.4825C104.732 78.3524 104.792 78.2315 104.888 78.1429C104.984 78.0544 105.109 78.0043 105.24 78.0024C105.306 78.005 105.37 78.0205 105.43 78.0481C105.489 78.0756 105.543 78.1146 105.588 78.1629C105.632 78.2112 105.667 78.2678 105.69 78.3295C105.712 78.3912 105.723 78.4568 105.72 78.5225C105.738 78.9526 105.912 79.3615 106.21 79.6725C108.685 82.7356 110.214 86.4539 110.61 90.3725C111.264 95.8255 109.757 101.318 106.41 105.672L106.08 106.072C105.873 106.25 105.704 106.467 105.582 106.711C105.46 106.955 105.388 107.22 105.37 107.492C105.374 107.557 105.365 107.621 105.344 107.682C105.323 107.743 105.291 107.8 105.248 107.848C105.205 107.896 105.153 107.936 105.095 107.964C105.037 107.992 104.974 108.009 104.91 108.012L104.86 108.032Z" fill="black"/>
<path d="M73.7696 108.032C73.6404 108.032 73.5161 107.982 73.4229 107.893C73.3297 107.803 73.2747 107.681 73.2696 107.552C73.2397 107.116 73.0675 106.701 72.7796 106.372C69.7659 102.71 68.0589 98.1471 67.9285 93.4058C67.7981 88.6645 69.2517 84.0149 72.0596 80.1922L72.2496 79.9522C72.6392 79.5769 72.8776 79.0716 72.9196 78.5322C72.9196 78.3996 72.9723 78.2724 73.066 78.1787C73.1598 78.0849 73.287 78.0322 73.4196 78.0322C73.5522 78.0322 73.6794 78.0849 73.7731 78.1787C73.8669 78.2724 73.9196 78.3996 73.9196 78.5322C73.8948 79.3079 73.5809 80.0462 73.0396 80.6022L72.8596 80.8222C70.6054 83.8079 69.2615 87.3811 68.9896 91.1122C68.7348 93.7364 69.007 96.385 69.79 98.9025C70.5731 101.42 71.8513 103.756 73.5496 105.772C73.9741 106.265 74.2268 106.883 74.2696 107.532C74.2723 107.598 74.262 107.663 74.2393 107.725C74.2166 107.787 74.182 107.843 74.1374 107.892C74.0928 107.94 74.0391 107.979 73.9795 108.007C73.9198 108.034 73.8553 108.05 73.7896 108.052L73.7696 108.032Z" fill="black"/>
<path d="M70.1399 48.5324C68.0316 48.4124 65.9182 48.4124 63.8099 48.5324C63.7442 48.5364 63.6784 48.5275 63.6162 48.5061C63.554 48.4846 63.4966 48.4511 63.4473 48.4074C63.3981 48.3638 63.358 48.3108 63.3292 48.2516C63.3005 48.1924 63.2838 48.1281 63.2799 48.0624C63.2768 47.931 63.3235 47.8033 63.4107 47.705C63.4979 47.6066 63.6191 47.545 63.7499 47.5324C65.8982 47.4124 68.0516 47.4124 70.1999 47.5324C70.2656 47.5362 70.3299 47.5529 70.3891 47.5817C70.4484 47.6104 70.5013 47.6505 70.545 47.6998C70.5886 47.749 70.6222 47.8064 70.6436 47.8686C70.665 47.9308 70.674 47.9967 70.6699 48.0624C70.6661 48.1281 70.6493 48.1924 70.6206 48.2516C70.5919 48.3108 70.5518 48.3638 70.5025 48.4074C70.4533 48.4511 70.3959 48.4846 70.3337 48.5061C70.2715 48.5275 70.2056 48.5364 70.1399 48.5324Z" fill="black"/>
<path d="M108.48 48.5323C108.414 48.5369 108.348 48.5285 108.286 48.5077C108.224 48.4868 108.166 48.4538 108.116 48.4106C108.016 48.3234 107.954 48.1999 107.945 48.0673C107.936 47.9347 107.98 47.8039 108.067 47.7035C108.154 47.6032 108.277 47.5416 108.41 47.5323C108.741 47.4855 109.076 47.4655 109.41 47.4723H109.56H110.56C111.721 47.4127 112.884 47.4428 114.04 47.5623C114.106 47.5698 114.17 47.5902 114.228 47.6225C114.285 47.6547 114.336 47.6982 114.377 47.7503C114.418 47.8024 114.448 47.8621 114.466 47.926C114.484 47.9899 114.488 48.0566 114.48 48.1223C114.458 48.2513 114.388 48.3672 114.284 48.4469C114.18 48.5266 114.05 48.5643 113.92 48.5523C112.814 48.4407 111.7 48.414 110.59 48.4723H109.59H109.45C109.146 48.4635 108.841 48.4802 108.54 48.5223L108.48 48.5323Z" fill="black"/>
<path d="M81.71 61.4223C81.5782 61.4197 81.4525 61.3662 81.3592 61.273C81.266 61.1798 81.2125 61.0541 81.21 60.9223V56.0823C81.2125 55.9505 81.266 55.8248 81.3592 55.7315C81.4525 55.6383 81.5782 55.5848 81.71 55.5823C81.8426 55.5823 81.9698 55.635 82.0635 55.7287C82.1573 55.8225 82.21 55.9497 82.21 56.0823V60.9223C82.21 61.0549 82.1573 61.182 82.0635 61.2758C81.9698 61.3696 81.8426 61.4223 81.71 61.4223Z" fill="black"/>
<path d="M96.9101 61.4223C96.7863 61.4207 96.6674 61.3742 96.5754 61.2914C96.4834 61.2086 96.4246 61.0952 96.4101 60.9723C96.3206 59.9215 96.2905 58.8665 96.3201 57.8123C96.3201 57.2423 96.3201 56.6723 96.3201 56.1023C96.3201 55.9697 96.3727 55.8425 96.4665 55.7487C96.5603 55.655 96.6875 55.6023 96.8201 55.6023C96.9527 55.6023 97.0798 55.655 97.1736 55.7487C97.2674 55.8425 97.3201 55.9697 97.3201 56.1023C97.3201 56.6823 97.3201 57.2723 97.3201 57.8623C97.2913 58.8632 97.3213 59.8649 97.4101 60.8623C97.4243 60.9946 97.3862 61.1272 97.304 61.2318C97.2218 61.3364 97.102 61.4048 96.9701 61.4223H96.9101Z" fill="black"/>
<path d="M107.45 44.7424H107.32C107.188 44.7249 107.068 44.6565 106.986 44.5519C106.904 44.4473 106.866 44.3147 106.88 44.1824C106.897 44.0512 106.966 43.9323 107.071 43.8516C107.176 43.771 107.309 43.7354 107.44 43.7524C107.5 43.7524 107.59 43.6224 107.62 43.5924C108.13 42.9824 108.62 42.3924 109.19 41.8024C109.76 41.2124 110.09 40.8024 110.53 40.2824C110.614 40.1806 110.719 40.0984 110.839 40.0414C110.958 39.9844 111.088 39.954 111.22 39.9524C111.354 39.9342 111.491 39.9673 111.602 40.0451C111.713 40.123 111.791 40.2398 111.82 40.3724C111.833 40.4355 111.833 40.5006 111.82 40.5638C111.808 40.627 111.782 40.687 111.746 40.7402C111.709 40.7934 111.663 40.8387 111.608 40.8734C111.554 40.9082 111.493 40.9316 111.43 40.9424H111.28C110.85 41.4424 110.39 41.9424 109.94 42.4524C109.49 42.9624 108.94 43.6224 108.38 44.2224C108.278 44.3777 108.141 44.5061 107.979 44.5966C107.817 44.6871 107.635 44.7372 107.45 44.7424Z" fill="black"/>
<path d="M71.1498 44.7425C70.9484 44.7407 70.7507 44.6874 70.5756 44.5877C70.4006 44.4879 70.254 44.3449 70.1498 44.1725L70.0498 44.0525C69.3298 43.2225 68.5898 42.4025 67.8598 41.5825L67.1298 40.7725C67.0812 40.7247 67.0428 40.6676 67.0171 40.6045C66.9913 40.5414 66.9787 40.4737 66.9801 40.4055C66.9814 40.3374 66.9967 40.2702 67.025 40.2082C67.0532 40.1462 67.0939 40.0906 67.1444 40.0449C67.1949 39.9991 67.2543 39.9642 67.3188 39.9422C67.3833 39.9203 67.4516 39.9117 67.5195 39.9171C67.5875 39.9225 67.6536 39.9417 67.7138 39.9736C67.7741 40.0055 67.8272 40.0493 67.8698 40.1024L68.5998 40.9125C69.3398 41.7325 70.0798 42.5625 70.8098 43.3925L70.9398 43.5625C70.9833 43.6306 71.0373 43.6913 71.0998 43.7425C71.2335 43.722 71.3698 43.7544 71.48 43.8329C71.5901 43.9113 71.6654 44.0295 71.6898 44.1625C71.7103 44.2908 71.68 44.4221 71.6054 44.5285C71.5307 44.6349 71.4175 44.7081 71.2898 44.7324L71.1498 44.7425Z" fill="black"/>
<path d="M111.32 56.1324C111.148 56.1376 110.977 56.1012 110.822 56.0264C110.667 55.9515 110.533 55.8404 110.43 55.7024C109.99 55.1624 109.52 54.6425 109.05 54.1225C108.58 53.6025 108.2 53.1224 107.79 52.6624L107.7 52.5525C107.51 52.3225 107.49 52.3225 107.43 52.3325C107.298 52.3437 107.166 52.303 107.064 52.219C106.961 52.135 106.895 52.0143 106.88 51.8824C106.871 51.7508 106.913 51.6207 106.996 51.5186C107.08 51.4165 107.199 51.3499 107.33 51.3325C107.556 51.3185 107.781 51.366 107.982 51.4699C108.182 51.5738 108.351 51.7302 108.47 51.9224L108.55 52.0225C108.96 52.5025 109.38 53.0224 109.8 53.4524C110.22 53.8824 110.75 54.5224 111.2 55.0724C111.343 55.0739 111.481 55.1274 111.588 55.2231C111.695 55.3188 111.763 55.4501 111.78 55.5925C111.794 55.7195 111.758 55.847 111.68 55.9479C111.601 56.0487 111.487 56.115 111.36 56.1324H111.32Z" fill="black"/>
<path d="M67.6399 56.0424C67.5434 56.046 67.448 56.021 67.3657 55.9705C67.2834 55.92 67.2179 55.8464 67.1773 55.7588C67.1367 55.6712 67.1228 55.5735 67.1376 55.4781C67.1523 55.3827 67.1948 55.2937 67.2599 55.2224L68.0799 54.2824C68.7866 53.4824 69.4866 52.6724 70.1799 51.8524C70.3385 51.656 70.5377 51.4962 70.7638 51.384C70.9899 51.2718 71.2376 51.2099 71.4899 51.2024C71.5556 51.1978 71.6215 51.2062 71.6839 51.2271C71.7463 51.2479 71.804 51.2809 71.8537 51.3241C71.9034 51.3673 71.9441 51.4198 71.9735 51.4787C72.0029 51.5376 72.0203 51.6017 72.0249 51.6674C72.0295 51.7331 72.0211 51.799 72.0003 51.8614C71.9794 51.9238 71.9464 51.9815 71.9032 52.0312C71.86 52.0809 71.8075 52.1216 71.7486 52.1509C71.6897 52.1803 71.6256 52.1978 71.5599 52.2024C71.4427 52.1997 71.3264 52.2245 71.2204 52.2748C71.1145 52.3252 71.0218 52.3997 70.9499 52.4924C70.2599 53.3224 69.5399 54.1324 68.8299 54.9424L68.0099 55.8724C67.966 55.9278 67.9095 55.9721 67.8453 56.0017C67.781 56.0312 67.7106 56.0451 67.6399 56.0424Z" fill="black"/>
<path d="M87.5899 77.9923C85.8532 78.2477 84.1666 78.7706 82.5899 79.5423C80.5144 80.5925 78.7141 82.1151 77.3339 83.9875C75.9537 85.86 75.0321 88.0301 74.643 90.3235C74.254 92.6169 74.4084 94.9696 75.0939 97.1924C75.7794 99.4153 76.9768 101.446 78.5899 103.122C81.0112 105.766 84.3458 107.392 87.9199 107.672C89.9861 107.889 92.0748 107.657 94.0426 106.99C96.0103 106.324 97.8107 105.24 99.3199 103.812C100.833 102.464 102.048 100.816 102.889 98.9716C103.729 97.1275 104.175 95.1286 104.2 93.1023C104.296 89.9049 103.309 86.7689 101.4 84.2023C99.3055 81.2421 96.2002 79.1507 92.6699 78.3223C91.0199 78.0334 89.3436 77.9228 87.6699 77.9923" fill="white"/>
<path d="M89.3996 108.232C88.8996 108.232 88.3996 108.232 87.8896 108.172C84.1926 107.889 80.7422 106.208 78.2396 103.472C76.5716 101.742 75.3324 99.6453 74.6217 97.3497C73.9109 95.054 73.7484 92.6237 74.1471 90.2538C74.5458 87.884 75.4946 85.6407 76.9174 83.704C78.3402 81.7673 80.1974 80.1912 82.3396 79.1022C83.9671 78.3067 85.7076 77.767 87.4996 77.5022H88.8096C90.1517 77.4572 91.4944 77.5714 92.8096 77.8423C96.4538 78.6906 99.6577 80.8515 101.81 83.9122C103.792 86.5649 104.815 89.8123 104.71 93.1223C104.693 95.2124 104.239 97.276 103.378 99.1806C102.517 101.085 101.268 102.789 99.7096 104.182C96.9285 106.819 93.2316 108.271 89.3996 108.232ZM87.6396 78.4923C85.9616 78.7386 84.332 79.2446 82.8096 79.9923C80.802 81.0064 79.0609 82.4782 77.7268 84.2889C76.3926 86.0997 75.5028 88.1987 75.1291 90.4166C74.7554 92.6346 74.9082 94.9093 75.5754 97.0572C76.2425 99.2052 77.4052 101.166 78.9696 102.782C81.3027 105.336 84.5208 106.906 87.9696 107.172C89.9638 107.382 91.9797 107.157 93.8786 106.513C95.7775 105.869 97.5144 104.822 98.9696 103.442C100.437 102.143 101.615 100.551 102.428 98.7683C103.241 96.9854 103.671 95.0517 103.69 93.0923C103.786 90.0062 102.834 86.9785 100.99 84.5022C98.9661 81.638 95.9637 79.6139 92.5496 78.8123C91.3127 78.5624 90.0508 78.4583 88.7896 78.5022H87.6196L87.6396 78.4923Z" fill="black"/>
<path d="M98.04 93.6922C97.9738 93.6885 97.909 93.6714 97.8496 93.6419C97.7902 93.6125 97.7373 93.5712 97.6943 93.5208C97.6513 93.4703 97.619 93.4116 97.5993 93.3482C97.5797 93.2849 97.5731 93.2182 97.58 93.1523C97.667 92.0611 97.5252 90.9637 97.1636 89.9305C96.802 88.8973 96.2285 87.951 95.48 87.1523C94.7127 86.3278 93.7842 85.6698 92.7521 85.2191C91.7199 84.7684 90.6062 84.5346 89.48 84.5322H88.48C88.3474 84.5322 88.2202 84.4796 88.1264 84.3858C88.0327 84.292 87.98 84.1648 87.98 84.0322C87.98 83.8996 88.0327 83.7724 88.1264 83.6787C88.2202 83.5849 88.3474 83.5322 88.48 83.5322H89.48C90.7449 83.5343 91.996 83.7963 93.1554 84.3021C94.3148 84.8078 95.3579 85.5465 96.22 86.4722C97.0644 87.3692 97.7108 88.4336 98.1174 89.5964C98.5239 90.7592 98.6815 91.9946 98.58 93.2222C98.5762 93.2888 98.5591 93.354 98.5298 93.4139C98.5004 93.4738 98.4594 93.5273 98.409 93.5711C98.3587 93.6149 98.3001 93.6481 98.2368 93.6689C98.1734 93.6898 98.1065 93.6977 98.04 93.6922Z" fill="black"/>
<path d="M114.65 173.852C110.82 173.852 106.73 172.502 102.75 171.182C98.77 169.862 94.56 168.422 90.69 168.422C86.82 168.422 82.69 169.802 78.63 171.142C73.19 172.942 67.57 174.802 62.63 173.212C57.46 171.532 53.95 166.592 50.55 161.812C48.17 158.472 45.71 155.012 42.76 152.862C39.81 150.712 35.67 149.382 31.71 148.132C26.16 146.382 20.42 144.562 17.27 140.232C14.12 135.902 14.2 129.972 14.27 124.182C14.27 120.012 14.33 115.692 13.16 112.102C12.06 108.712 9.68 105.502 7.16 102.102C3.64 97.3624 0 92.4624 0 86.9124C0 81.3624 3.64 76.4524 7.16 71.7124C9.69 68.3124 12.07 65.1024 13.16 61.7124C14.33 58.1224 14.3 53.8024 14.28 49.6324C14.28 43.8424 14.2 37.8524 17.28 33.5824C20.36 29.3124 26.17 27.4324 31.72 25.6824C35.72 24.4324 39.77 23.1324 42.77 20.9524C45.77 18.7724 48.18 15.3424 50.56 12.0024C53.96 7.22238 57.47 2.28237 62.64 0.60237C67.56 -0.98763 73.18 0.872372 78.64 2.68237C82.64 4.01237 86.83 5.39238 90.7 5.39238C94.197 5.21002 97.6462 4.4986 100.93 3.28238L101.24 4.23238C97.8549 5.49387 94.2975 6.23234 90.69 6.42238C86.69 6.42238 82.42 5.01238 78.32 3.66238C72.79 1.82238 67.57 0.0923759 62.96 1.59238C58.1 3.16238 54.69 7.96238 51.38 12.5924C48.96 16.0024 46.45 19.5324 43.38 21.7724C40.31 24.0124 36.08 25.3724 32.05 26.6424C26.66 28.3524 21.05 30.1124 18.12 34.1824C15.19 38.2524 15.24 43.7424 15.28 49.6324C15.28 53.8924 15.33 58.2924 14.11 62.0324C12.96 65.5724 10.42 69.0324 7.95001 72.3224C4.53001 76.9224 0.950012 81.6924 0.950012 86.9224C0.950012 92.1524 4.49001 96.9224 7.95001 101.512C10.42 104.832 12.95 108.262 14.11 111.802C15.33 115.542 15.3 119.942 15.27 124.202C15.27 130.092 15.2 135.652 18.12 139.662C21.04 143.672 26.66 145.482 32.05 147.192C36.05 148.462 40.25 149.782 43.38 152.062C46.51 154.342 48.98 157.832 51.38 161.242C54.69 165.892 58.1 170.692 62.96 172.242C67.57 173.732 72.79 172.002 78.32 170.172C82.42 168.812 86.66 167.402 90.69 167.402C94.72 167.402 98.96 168.812 103.06 170.172C108.59 172.002 113.81 173.732 118.42 172.242C123.28 170.662 126.69 165.862 130 161.242C132.42 157.822 134.93 154.292 138 152.052L138.59 152.862C135.64 155.012 133.18 158.472 130.8 161.812C127.4 166.592 123.89 171.532 118.72 173.212C117.405 173.636 116.032 173.852 114.65 173.852Z" fill="#1D1D1B"/>
<path d="M144.42 25.0324C142.148 24.2564 139.994 23.1694 138.02 21.8024C134.93 19.5624 132.42 16.0324 130.02 12.6224C126.71 7.97242 123.3 3.17242 118.44 1.62242C113.83 0.12242 108.61 1.85242 103.08 3.68242L101.25 4.29242L100.94 3.34242L102.77 2.74243C108.21 0.932431 113.83 -0.927571 118.77 0.662429C123.94 2.34243 127.45 7.28242 130.85 12.0624C133.23 15.4024 135.69 18.8624 138.64 21.0124C140.543 22.3262 142.62 23.3695 144.81 24.1124L144.42 25.0324Z" fill="#1D1D1B"/>
</svg>
