<svg width="185" height="175" viewBox="0 0 185 175" fill="none" xmlns="http://www.w3.org/2000/svg">
<path d="M106.82 56.8958C108.359 53.2731 109.694 49.5673 110.82 45.7958C111.36 42.8558 110.52 40.1458 107.03 39.2358C104.536 38.7288 102.14 37.8275 99.9299 36.5658C98.407 35.6843 97.2797 34.2529 96.7799 32.5658C96.5999 31.8658 96.8899 31.0658 96.1499 30.5058C95.5765 30.0009 94.8436 29.7141 94.0799 29.6958C92.1299 29.6958 90.1799 29.6958 88.2299 29.6958C87.8636 29.6538 87.4926 29.6929 87.1432 29.8105C86.7938 29.9281 86.4746 30.1212 86.2083 30.376C85.9419 30.6309 85.735 30.9413 85.6022 31.2852C85.4694 31.6291 85.414 31.9981 85.4399 32.3658C85.3603 33.0402 85.1414 33.6907 84.7971 34.276C84.4528 34.8613 83.9906 35.3686 83.4399 35.7658C81.3811 37.4064 78.9432 38.5033 76.3499 38.9558C75.5352 39.097 74.742 39.3424 73.9899 39.6858C73.0172 40.257 72.2486 41.1194 71.7928 42.1513C71.337 43.1831 71.217 44.3321 71.4499 45.4358C71.8899 48.1358 73.1199 50.5058 73.9699 53.0358C74.2399 53.8458 75.5199 56.7858 75.8199 57.5558C76.4791 59.2287 77.0303 60.9423 77.4699 62.6858C78.9471 67.962 78.442 73.5965 76.0499 78.5258C74.7352 81.4171 73.888 84.4988 73.5399 87.6558C73.1641 90.4155 73.047 93.2043 73.1899 95.9858C73.3599 99.0858 73.9599 102.076 76.4399 104.326C78.3223 105.881 80.6008 106.882 83.0199 107.216C84.9021 107.374 86.7915 107.431 88.6799 107.386C90.692 107.611 92.7205 107.651 94.7399 107.506C97.7399 107.506 100.87 107.346 103.74 105.866C105.157 105.135 106.373 104.068 107.283 102.759C108.193 101.45 108.769 99.9385 108.96 98.3558C109.32 95.6306 109.38 92.8742 109.14 90.1358C108.861 85.5775 107.724 81.1129 105.79 76.9758C104.5 73.9982 103.955 70.7514 104.2 67.5158C104.459 63.8527 105.374 60.2659 106.9 56.9258" fill="#A3A7D5"/>
<path d="M106.82 56.8958C108.359 53.2731 109.694 49.5673 110.82 45.7958C111.36 42.8558 110.52 40.1458 107.03 39.2358C104.536 38.7288 102.14 37.8275 99.9299 36.5658C98.407 35.6843 97.2797 34.2529 96.7799 32.5658C96.5999 31.8658 96.8899 31.0658 96.1499 30.5058C95.5765 30.0009 94.8436 29.7141 94.0799 29.6958C92.1299 29.6958 90.1799 29.6958 88.2299 29.6958C87.8636 29.6538 87.4926 29.6929 87.1432 29.8105C86.7938 29.9281 86.4746 30.1212 86.2083 30.376C85.9419 30.6309 85.735 30.9413 85.6022 31.2852C85.4694 31.6291 85.414 31.9981 85.4399 32.3658C85.3603 33.0402 85.1414 33.6907 84.7971 34.276C84.4528 34.8613 83.9906 35.3686 83.4399 35.7658C81.3811 37.4064 78.9432 38.5033 76.3499 38.9558C75.5352 39.097 74.742 39.3424 73.9899 39.6858C73.0172 40.257 72.2486 41.1194 71.7928 42.1513C71.337 43.1831 71.217 44.3321 71.4499 45.4358C71.8899 48.1358 73.1199 50.5058 73.9699 53.0358C74.2399 53.8458 75.5199 56.7858 75.8199 57.5558C76.4791 59.2287 77.0303 60.9423 77.4699 62.6858C78.9471 67.962 78.442 73.5965 76.0499 78.5258C74.7352 81.4171 73.888 84.4988 73.5399 87.6558C73.1641 90.4155 73.047 93.2043 73.1899 95.9858C73.3599 99.0858 73.9599 102.076 76.4399 104.326C78.3223 105.881 80.6008 106.882 83.0199 107.216C84.9021 107.374 86.7915 107.431 88.6799 107.386C90.692 107.611 92.7205 107.651 94.7399 107.506C97.7399 107.506 100.87 107.346 103.74 105.866C105.157 105.135 106.373 104.068 107.283 102.759C108.193 101.45 108.769 99.9385 108.96 98.3558C109.32 95.6306 109.38 92.8742 109.14 90.1358C108.861 85.5775 107.724 81.1129 105.79 76.9758C104.5 73.9982 103.955 70.7514 104.2 67.5158C104.459 63.8527 105.374 60.2659 106.9 56.9258" stroke="black" stroke-miterlimit="10"/>
<path d="M111.98 141.906C111.98 143.316 112.08 144.696 111.07 145.906C110.475 146.694 109.646 147.275 108.702 147.566C107.757 147.857 106.745 147.843 105.81 147.526C104.905 147.226 104.119 146.647 103.564 145.873C103.009 145.099 102.714 144.168 102.72 143.216C102.757 141.88 102.7 140.543 102.55 139.216C101.99 135.776 98.6297 132.676 95.0197 132.846C93.7497 132.896 92.4797 132.846 91.2197 132.846" stroke="black" stroke-linecap="round" stroke-linejoin="round"/>
<path d="M91.0097 132.756C89.6805 132.883 88.3438 132.917 87.0097 132.856C85.1146 132.93 83.3155 133.71 81.9652 135.042C80.6148 136.374 79.8105 138.162 79.7098 140.056C79.7098 141.426 79.5998 142.796 79.4998 144.166C79.3099 144.986 78.9066 145.742 78.3306 146.357C77.7546 146.971 77.0264 147.423 76.2198 147.666C75.5023 147.873 74.7457 147.906 74.0128 147.763C73.2798 147.62 72.5916 147.304 72.0051 146.841C71.4186 146.379 70.9507 145.784 70.6403 145.104C70.3298 144.425 70.1856 143.682 70.2198 142.936V141.936" stroke="black" stroke-linecap="round" stroke-linejoin="round"/>
<path d="M91.1099 107.776C91.163 108.154 91.1963 108.534 91.2099 108.916C91.2099 116.376 91.2099 123.842 91.2099 131.316V146.836" stroke="black" stroke-linecap="round" stroke-linejoin="round"/>
<path d="M97.79 52.5857C98.5434 52.6426 99.2522 52.9651 99.79 53.4957C100.987 54.5259 102.511 55.0966 104.09 55.1057C105.03 55.1557 106 54.8357 106.97 54.9457" stroke="black" stroke-linecap="round" stroke-linejoin="round"/>
<path d="M83.0997 51.6658C83.2643 51.9682 83.3052 52.3227 83.2138 52.6547C83.1224 52.9866 82.9059 53.2702 82.6096 53.4458C80.6996 55.0858 78.5097 55.2058 76.2197 54.9158C75.9097 54.9158 75.6696 54.9858 75.3896 54.9158" stroke="black" stroke-linecap="round" stroke-linejoin="round"/>
<path d="M132.85 2.35566L132.17 3.72566L133.79 4.54567L133.66 4.81565L132.03 3.99566L128.69 10.6457L128.41 10.5157L131.75 3.86566L131.19 3.57566L131.33 3.30566L131.89 3.58566L132.61 2.16566C133.07 1.24566 133.73 0.845653 134.51 1.23565C134.834 1.40627 135.091 1.68103 135.24 2.01565L135.09 2.31565C134.937 1.9849 134.69 1.70659 134.38 1.51565C133.76 1.20565 133.24 1.58566 132.85 2.35566Z" fill="#1D1D1B" stroke="#1D1D1B" stroke-width="0.5" stroke-miterlimit="10"/>
<path d="M138.97 7.2756C139.649 7.69093 140.191 8.29559 140.53 9.01516C140.87 9.73473 140.991 10.5378 140.88 11.3256L142.08 9.3256L142.34 9.48559L138.34 16.1356L138.08 15.9756L139.28 13.9756C138.696 14.3982 138.009 14.6551 137.291 14.7192C136.573 14.7834 135.851 14.6523 135.201 14.3399C134.552 14.0275 133.999 13.5453 133.601 12.9444C133.202 12.3435 132.974 11.6462 132.94 10.9262C132.905 10.2062 133.066 9.4903 133.405 8.85415C133.744 8.218 134.248 7.68526 134.865 7.31226C135.482 6.93927 136.188 6.73989 136.909 6.73519C137.63 6.7305 138.338 6.92067 138.96 7.28559L138.97 7.2756ZM134.97 13.9256C135.602 14.2977 136.33 14.4747 137.062 14.4344C137.795 14.394 138.499 14.1381 139.086 13.6988C139.673 13.2594 140.118 12.6563 140.363 11.9652C140.608 11.2741 140.644 10.5258 140.466 9.81448C140.287 9.10312 139.902 8.46041 139.36 7.96713C138.817 7.47384 138.14 7.152 137.415 7.04205C136.69 6.9321 135.949 7.03896 135.284 7.34918C134.62 7.6594 134.061 8.15913 133.68 8.78559C133.426 9.20753 133.258 9.67543 133.186 10.1624C133.113 10.6494 133.138 11.1459 133.258 11.6235C133.378 12.1011 133.59 12.5502 133.884 12.9453C134.178 13.3403 134.547 13.6735 134.97 13.9256Z" fill="#1D1D1B" stroke="#1D1D1B" stroke-width="0.5" stroke-miterlimit="10"/>
<path d="M141.18 15.9956C141.018 16.5106 141.029 17.064 141.209 17.5726C141.389 18.0812 141.73 18.5174 142.18 18.8156C143.32 19.6756 144.36 19.6056 144.89 18.8956C145.68 17.8456 144.98 16.8956 144.07 15.2856C143.64 14.4856 142.99 13.4456 143.7 12.5056C144.058 12.1227 144.552 11.8956 145.075 11.8732C145.599 11.8507 146.11 12.0347 146.5 12.3856C146.961 12.679 147.293 13.1362 147.431 13.665C147.568 14.1938 147.5 14.7551 147.24 15.2356L146.99 15.0556C147.204 14.6404 147.253 14.16 147.129 13.7098C147.005 13.2596 146.716 12.8726 146.32 12.6256C145.994 12.322 145.563 12.1582 145.118 12.1695C144.672 12.1807 144.25 12.366 143.94 12.6856C143.28 13.5756 144.03 14.5256 144.76 15.8956C145.27 16.8456 146 17.8956 145.14 19.0756C144.51 19.9256 143.27 20.0156 141.99 19.0756C141.465 18.7388 141.071 18.2337 140.871 17.6432C140.671 17.0527 140.678 16.4118 140.89 15.8256L141.18 15.9956Z" fill="#1D1D1B" stroke="#1D1D1B" stroke-width="0.5" stroke-miterlimit="10"/>
<path d="M153.14 22.3756L150.14 25.7056L149.91 25.5056L152.91 22.1756C154.35 20.5456 154.14 19.0656 153.04 18.0856C152.38 17.5096 151.52 17.2152 150.645 17.2657C149.77 17.3162 148.95 17.7074 148.36 18.3556L145.51 21.5656L145.28 21.3556L152.91 12.7656L153.14 12.9756L149.24 17.3556C149.872 16.9983 150.603 16.854 151.323 16.9441C152.043 17.0341 152.716 17.3537 153.24 17.8556C154.48 18.9556 154.68 20.6456 153.14 22.3756Z" fill="#1D1D1B" stroke="#1D1D1B" stroke-width="0.5" stroke-miterlimit="10"/>
<path d="M151.82 27.4256L151.6 27.2056L157.12 21.7656L157.34 21.9856L151.82 27.4256ZM158.4 20.1856C158.435 20.1499 158.477 20.1216 158.524 20.1023C158.57 20.083 158.62 20.073 158.67 20.073C158.72 20.073 158.77 20.083 158.816 20.1023C158.863 20.1216 158.905 20.1499 158.94 20.1856C158.977 20.2202 159.006 20.262 159.027 20.3085C159.047 20.3549 159.057 20.405 159.057 20.4556C159.057 20.5062 159.047 20.5563 159.027 20.6027C159.006 20.6492 158.977 20.691 158.94 20.7256C158.868 20.7972 158.771 20.8374 158.67 20.8374C158.569 20.8374 158.472 20.7972 158.4 20.7256C158.329 20.654 158.288 20.5569 158.288 20.4556C158.288 20.3543 158.329 20.2572 158.4 20.1856Z" fill="#1D1D1B" stroke="#1D1D1B" stroke-width="0.5" stroke-miterlimit="10"/>
<path d="M156.33 26.4356C156.935 25.9323 157.674 25.6184 158.457 25.5334C159.239 25.4484 160.029 25.596 160.727 25.9577C161.426 26.3194 162.003 26.8791 162.385 27.5669C162.767 28.2547 162.938 29.0399 162.876 29.8243C162.815 30.6087 162.523 31.3574 162.037 31.9768C161.552 32.5962 160.895 33.0587 160.148 33.3065C159.401 33.5543 158.598 33.5763 157.839 33.3698C157.08 33.1633 156.398 32.7375 155.88 32.1456C155.528 31.7441 155.26 31.2762 155.092 30.7696C154.924 30.263 154.859 29.7279 154.901 29.1957C154.943 28.6636 155.091 28.1453 155.336 27.6712C155.582 27.1972 155.919 26.7771 156.33 26.4356ZM161.33 32.3656C161.894 31.8867 162.304 31.2509 162.507 30.5389C162.71 29.8268 162.698 29.0705 162.47 28.3657C162.243 27.661 161.812 27.0396 161.231 26.5802C160.651 26.1208 159.947 25.8441 159.208 25.7851C158.47 25.7262 157.731 25.8877 157.085 26.2491C156.439 26.6106 155.914 27.1557 155.578 27.8154C155.242 28.4752 155.109 29.2199 155.197 29.9551C155.284 30.6904 155.588 31.3832 156.07 31.9456C156.389 32.3293 156.782 32.6452 157.225 32.8747C157.669 33.1041 158.154 33.2425 158.651 33.2817C159.149 33.3208 159.649 33.2599 160.123 33.1026C160.597 32.9453 161.034 32.6947 161.41 32.3656H161.33Z" fill="#1D1D1B" stroke="#1D1D1B" stroke-width="0.5" stroke-miterlimit="10"/>
<path d="M167.02 39.3957L163.33 41.9157L163.15 41.6657L166.83 39.1357C168.62 37.9057 168.77 36.4157 167.94 35.2057C167.44 34.4839 166.676 33.9879 165.814 33.8251C164.951 33.6622 164.059 33.8457 163.33 34.3357L159.79 36.7557L159.62 36.5057L166.03 32.0857L166.2 32.3257L164.45 33.5357C165.149 33.3417 165.893 33.3779 166.57 33.6391C167.247 33.9002 167.822 34.3723 168.21 34.9857C169.15 36.3957 168.93 38.0857 167.02 39.3957Z" fill="#1D1D1B" stroke="#1D1D1B" stroke-width="0.5" stroke-miterlimit="10"/>
<path d="M175.04 47.6457C174.827 47.2057 174.53 46.812 174.165 46.487C173.8 46.162 173.375 45.912 172.913 45.7513C172.452 45.5907 171.963 45.5225 171.475 45.5507C170.987 45.5789 170.51 45.7029 170.07 45.9157C169.63 46.1284 169.236 46.4257 168.911 46.7906C168.586 47.1555 168.336 47.5809 168.176 48.0424C168.015 48.5039 167.947 48.9925 167.975 49.4803C168.003 49.9682 168.127 50.4457 168.34 50.8856C168.562 51.3363 168.877 51.7345 169.265 52.0536C169.653 52.3726 170.105 52.6051 170.59 52.7357L170.25 52.8957C169.773 52.7554 169.33 52.5153 168.953 52.1912C168.575 51.8671 168.271 51.4663 168.06 51.0157C167.83 50.539 167.696 50.0217 167.667 49.4933C167.637 48.965 167.711 48.4359 167.886 47.9363C168.06 47.4367 168.332 46.9764 168.684 46.5817C169.037 46.1869 169.463 45.8655 169.94 45.6357C170.417 45.4058 170.934 45.2722 171.462 45.2423C171.991 45.2124 172.52 45.2868 173.019 45.4614C173.519 45.636 173.979 45.9073 174.374 46.2597C174.769 46.6122 175.09 47.039 175.32 47.5157C175.542 47.9602 175.667 48.4471 175.686 48.9438C175.705 49.4405 175.618 49.9355 175.43 50.3957L175.09 50.5657C175.289 50.1032 175.388 49.6037 175.379 49.1003C175.371 48.5968 175.255 48.101 175.04 47.6457Z" fill="#1D1D1B" stroke="#1D1D1B" stroke-width="0.5" stroke-miterlimit="10"/>
<path d="M173.58 53.3257C174.323 53.0667 175.127 53.0328 175.889 53.2283C176.652 53.4238 177.34 53.8399 177.867 54.4246C178.394 55.0092 178.737 55.7364 178.853 56.515C178.968 57.2937 178.852 58.0892 178.517 58.8018C178.183 59.5145 177.646 60.1127 176.973 60.5215C176.3 60.9302 175.522 61.1314 174.735 61.0998C173.949 61.0682 173.189 60.8052 172.551 60.3437C171.913 59.8823 171.426 59.2429 171.15 58.5057C170.963 58.0065 170.878 57.475 170.899 56.9424C170.921 56.4098 171.048 55.8868 171.275 55.4042C171.501 54.9216 171.822 54.4892 172.218 54.1322C172.613 53.7753 173.077 53.5011 173.58 53.3257ZM176.21 60.6457C176.907 60.3952 177.513 59.9435 177.953 59.348C178.393 58.7524 178.646 58.0397 178.68 57.3002C178.715 56.5607 178.529 55.8276 178.146 55.1938C177.764 54.56 177.202 54.0539 176.531 53.7398C175.861 53.4256 175.113 53.3175 174.381 53.4291C173.649 53.5407 172.967 53.867 172.42 54.3666C171.874 54.8663 171.488 55.5168 171.312 56.2359C171.136 56.9549 171.177 57.7101 171.43 58.4057C171.596 58.8669 171.852 59.2907 172.183 59.6529C172.513 60.0151 172.912 60.3086 173.356 60.5167C173.8 60.7247 174.28 60.8432 174.77 60.8653C175.26 60.8875 175.749 60.8129 176.21 60.6457Z" fill="#1D1D1B" stroke="#1D1D1B" stroke-width="0.5" stroke-miterlimit="10"/>
<path d="M182.15 68.2657L174.62 70.0857L174.55 69.8057L176.61 69.2857C175.888 69.2173 175.207 68.919 174.667 68.4348C174.127 67.9506 173.757 67.306 173.61 66.5957C173.22 64.9957 174.02 63.4857 176.26 62.9357L180.59 61.8757L180.66 62.1757L176.33 63.2657C174.21 63.7857 173.55 65.1257 173.9 66.5557C174.118 67.4032 174.658 68.1323 175.405 68.588C176.152 69.0436 177.047 69.1899 177.9 68.9957L182.06 67.9957L182.15 68.2657Z" fill="#1D1D1B" stroke="#1D1D1B" stroke-width="0.5" stroke-miterlimit="10"/>
<path d="M182.97 74.4057L182.7 74.3157C182.857 74.029 182.91 73.697 182.85 73.3757C182.61 71.8757 180.67 71.7257 179.59 71.9057L175.04 72.6457V72.3457L182.63 71.0857L182.68 71.3757L181.25 71.6257C181.709 71.6576 182.145 71.8407 182.488 72.1465C182.832 72.4523 183.065 72.8635 183.15 73.3157C183.223 73.6889 183.159 74.0759 182.97 74.4057Z" fill="#1D1D1B" stroke="#1D1D1B" stroke-width="0.5" stroke-miterlimit="10"/>
<path d="M177.5 76.9657C177.008 77.1967 176.605 77.5832 176.354 78.0656C176.103 78.5481 176.017 79.0998 176.11 79.6357C176.24 81.0557 176.99 81.7857 177.87 81.7057C179.18 81.5757 179.39 80.4457 180 78.7057C180.3 77.8557 180.64 76.7057 181.81 76.5657C182.341 76.5657 182.849 76.7764 183.224 77.1515C183.6 77.5265 183.81 78.0352 183.81 78.5657C183.899 79.1057 183.78 79.6592 183.478 80.1154C183.175 80.5716 182.712 80.8967 182.18 81.0257V80.7257C182.63 80.6031 183.019 80.3166 183.268 79.9225C183.518 79.5284 183.612 79.0551 183.53 78.5957C183.45 77.7157 182.84 76.7857 181.89 76.8757C180.94 76.9657 180.58 78.1657 180.06 79.6357C179.7 80.6357 179.38 81.9057 177.95 82.0457C176.9 82.1457 176 81.2957 175.85 79.7057C175.749 79.0905 175.859 78.4591 176.162 77.9144C176.465 77.3696 176.944 76.9436 177.52 76.7057L177.5 76.9657Z" fill="#1D1D1B" stroke="#1D1D1B" stroke-width="0.5" stroke-miterlimit="10"/>
<path d="M180.09 91.1857V83.7457C179.608 83.7386 179.13 83.8295 178.685 84.013C178.24 84.1964 177.836 84.4686 177.5 84.8128C177.163 85.1571 176.9 85.5662 176.726 86.0154C176.552 86.4646 176.472 86.9444 176.49 87.4257C176.464 88.0943 176.641 88.7551 176.998 89.321C177.355 89.887 177.875 90.3314 178.49 90.5957L178.42 90.8857C177.744 90.6043 177.172 90.1228 176.778 89.506C176.385 88.8892 176.19 88.1666 176.22 87.4357C176.211 86.9071 176.306 86.3819 176.499 85.8901C176.693 85.3982 176.982 84.9493 177.349 84.5691C178.091 83.8011 179.107 83.3593 180.175 83.3407C181.242 83.3221 182.273 83.7284 183.041 84.4701C183.809 85.2118 184.251 86.2282 184.27 87.2957C184.267 87.8203 184.16 88.3392 183.953 88.8213C183.746 89.3034 183.444 89.7389 183.065 90.1018C182.686 90.4648 182.238 90.7478 181.747 90.934C181.257 91.1202 180.734 91.2058 180.21 91.1857H180.09ZM180.37 83.7457V90.8757C181.283 90.8273 182.142 90.4306 182.771 89.7674C183.4 89.1041 183.751 88.2248 183.751 87.3107C183.751 86.3966 183.4 85.5173 182.771 84.854C182.142 84.1907 181.283 83.7941 180.37 83.7457Z" fill="#1D1D1B" stroke="#1D1D1B" stroke-width="0.5" stroke-miterlimit="10"/>
<path d="M177.97 92.8156C177.445 92.957 176.98 93.2659 176.646 93.6954C176.312 94.125 176.128 94.6516 176.12 95.1956C176 96.6156 176.6 97.4656 177.48 97.5456C178.8 97.6556 179.2 96.5456 180.13 94.9456C180.58 94.1556 181.13 93.0556 182.29 93.1656C182.807 93.2652 183.264 93.5646 183.562 93.9989C183.859 94.4333 183.974 94.9675 183.88 95.4856C183.866 96.0326 183.648 96.5545 183.269 96.9487C182.889 97.3429 182.376 97.5808 181.83 97.6156V97.3056C182.295 97.268 182.729 97.0569 183.046 96.7142C183.363 96.3715 183.539 95.9223 183.54 95.4556C183.62 94.5756 183.18 93.5456 182.24 93.4556C181.14 93.3656 180.72 94.4556 179.94 95.8456C179.4 96.7756 178.86 97.9656 177.43 97.8456C176.38 97.7556 175.65 96.7556 175.78 95.1656C175.792 94.5413 176.014 93.9393 176.412 93.458C176.81 92.9767 177.359 92.6445 177.97 92.5156V92.8156Z" fill="#1D1D1B" stroke="#1D1D1B" stroke-width="0.5" stroke-miterlimit="10"/>
<path d="M174.33 110.846L172.92 111.656L173.02 111.256L174.17 110.606C173.905 110.158 173.733 109.662 173.664 109.146C173.596 108.631 173.632 108.107 173.77 107.606C173.855 107.15 174.033 106.717 174.293 106.333C174.553 105.95 174.888 105.623 175.279 105.375C175.67 105.126 176.108 104.961 176.566 104.889C177.024 104.817 177.491 104.839 177.94 104.956C178.487 105.101 178.985 105.392 179.381 105.797C179.777 106.202 180.056 106.706 180.19 107.256H180.27C180.966 106.855 181.788 106.734 182.57 106.916C182.934 107.003 183.277 107.164 183.577 107.389C183.877 107.613 184.128 107.896 184.316 108.221C184.503 108.546 184.622 108.905 184.666 109.277C184.709 109.649 184.677 110.026 184.57 110.386C184.493 110.745 184.342 111.085 184.127 111.384C183.913 111.683 183.638 111.934 183.322 112.122C183.005 112.31 182.654 112.43 182.288 112.476C181.923 112.521 181.553 112.49 181.2 112.386L181.27 112.086C181.582 112.182 181.91 112.212 182.235 112.175C182.559 112.137 182.872 112.033 183.154 111.869C183.436 111.704 183.681 111.483 183.873 111.219C184.065 110.955 184.2 110.655 184.27 110.336C184.367 110.013 184.397 109.674 184.358 109.34C184.318 109.005 184.21 108.682 184.041 108.391C183.871 108.1 183.643 107.848 183.371 107.649C183.099 107.45 182.789 107.309 182.46 107.236C182.062 107.147 181.65 107.14 181.25 107.216C180.849 107.291 180.468 107.448 180.13 107.676L174.56 110.826C175.258 111.688 176.233 112.281 177.32 112.506L177.5 111.796L177.79 111.866L177.54 112.866C176.268 112.586 175.132 111.872 174.33 110.846ZM174.43 110.446L179.9 107.376C179.807 106.861 179.57 106.384 179.216 106C178.861 105.615 178.405 105.34 177.9 105.206C177.491 105.1 177.066 105.079 176.649 105.146C176.232 105.212 175.833 105.363 175.478 105.59C175.122 105.817 174.817 106.115 174.582 106.465C174.346 106.816 174.186 107.211 174.11 107.626C173.967 108.092 173.921 108.583 173.975 109.068C174.028 109.552 174.179 110.021 174.42 110.446H174.43Z" fill="#1D1D1B" stroke="#1D1D1B" stroke-width="0.5" stroke-miterlimit="10"/>
<path d="M173.33 131.306L167.44 125.546L167.57 125.256L175.31 125.876L169.75 120.446L169.89 120.156L178.1 120.806L177.97 121.096L170.22 120.486L175.78 125.906L175.65 126.206L167.9 125.596L173.46 131.006L173.33 131.306Z" fill="#1D1D1B" stroke="#1D1D1B" stroke-width="0.5" stroke-miterlimit="10"/>
<path d="M169 130.896C169.666 131.315 170.193 131.921 170.516 132.639C170.839 133.356 170.943 134.153 170.815 134.929C170.687 135.706 170.334 136.427 169.798 137.003C169.262 137.58 168.569 137.985 167.804 138.169C167.039 138.353 166.237 138.308 165.497 138.038C164.758 137.768 164.115 137.287 163.648 136.653C163.182 136.02 162.912 135.263 162.873 134.477C162.834 133.692 163.028 132.912 163.43 132.236C163.708 131.782 164.072 131.387 164.502 131.074C164.933 130.761 165.42 130.536 165.938 130.412C166.455 130.287 166.991 130.266 167.517 130.349C168.042 130.432 168.546 130.618 169 130.896ZM164.92 137.526C165.55 137.914 166.282 138.107 167.022 138.08C167.762 138.052 168.477 137.806 169.077 137.372C169.677 136.937 170.134 136.335 170.391 135.64C170.648 134.946 170.693 134.191 170.52 133.47C170.348 132.75 169.965 132.098 169.421 131.595C168.877 131.093 168.196 130.763 167.465 130.648C166.733 130.533 165.984 130.637 165.312 130.949C164.64 131.26 164.076 131.763 163.69 132.396C163.178 133.24 163.02 134.253 163.251 135.213C163.481 136.174 164.081 137.005 164.92 137.526Z" fill="#1D1D1B" stroke="#1D1D1B" stroke-width="0.5" stroke-miterlimit="10"/>
<path d="M164.46 144.316L164.33 144.086C164.647 144 164.923 143.805 165.11 143.536C166.01 142.316 164.77 140.826 163.88 140.176L160.17 137.446L160.35 137.196L166.59 141.796L166.41 142.026L165.23 141.176C165.526 141.529 165.698 141.969 165.722 142.429C165.745 142.889 165.618 143.344 165.36 143.726C165.135 144.018 164.818 144.226 164.46 144.316Z" fill="#1D1D1B" stroke="#1D1D1B" stroke-width="0.5" stroke-miterlimit="10"/>
<path d="M159.33 145.536L153.64 145.436L153.9 145.136L159.31 145.216L159.23 143.156L157.14 141.356L157.34 141.126L166.06 148.606L165.86 148.836L159.55 143.416L159.81 150.146L159.52 150.486L159.33 145.536Z" fill="#1D1D1B" stroke="#1D1D1B" stroke-width="0.5" stroke-miterlimit="10"/>
<path d="M154.12 147.566C153.621 147.321 153.055 147.25 152.512 147.364C151.968 147.478 151.478 147.771 151.12 148.196C150.12 149.196 150.03 150.246 150.66 150.876C151.6 151.806 152.59 151.236 154.36 150.576C155.21 150.256 156.36 149.766 157.16 150.576C157.492 150.985 157.648 151.509 157.596 152.033C157.543 152.558 157.286 153.04 156.88 153.376C156.522 153.788 156.021 154.05 155.478 154.109C154.935 154.169 154.389 154.021 153.95 153.696L154.17 153.476C154.552 153.744 155.02 153.859 155.482 153.8C155.945 153.741 156.368 153.511 156.67 153.156C157.016 152.877 157.239 152.473 157.29 152.031C157.34 151.589 157.215 151.145 156.94 150.796C156.16 150.016 155.11 150.616 153.65 151.146C152.65 151.516 151.47 152.086 150.45 151.066C149.7 150.326 149.78 149.066 150.91 147.956C151.317 147.485 151.873 147.166 152.485 147.051C153.097 146.937 153.73 147.034 154.28 147.326L154.12 147.566Z" fill="#1D1D1B" stroke="#1D1D1B" stroke-width="0.5" stroke-miterlimit="10"/>
<path d="M146.08 158.506L143.2 155.106L143.44 154.906L146.32 158.306C147.72 159.966 149.22 159.966 150.32 159.016C150.984 158.444 151.398 157.636 151.474 156.764C151.551 155.892 151.284 155.024 150.73 154.346L147.98 151.086L148.21 150.896L155.63 159.666L155.39 159.866L151.61 155.386C151.871 156.062 151.908 156.804 151.716 157.502C151.523 158.201 151.111 158.819 150.54 159.266C149.33 160.316 147.57 160.276 146.08 158.506Z" fill="#1D1D1B" stroke="#1D1D1B" stroke-width="0.5" stroke-miterlimit="10"/>
<path d="M144.27 159.196C144.705 159.851 144.938 160.62 144.938 161.407C144.939 162.194 144.707 162.963 144.273 163.619C143.838 164.275 143.22 164.788 142.495 165.094C141.77 165.4 140.972 165.486 140.198 165.34C139.425 165.195 138.712 164.824 138.148 164.276C137.585 163.727 137.195 163.024 137.029 162.255C136.863 161.486 136.927 160.685 137.213 159.952C137.5 159.22 137.996 158.588 138.64 158.136C139.079 157.836 139.573 157.625 140.094 157.516C140.615 157.406 141.152 157.401 141.675 157.499C142.197 157.598 142.696 157.798 143.141 158.089C143.586 158.38 143.97 158.756 144.27 159.196ZM137.84 163.576C138.253 164.19 138.84 164.668 139.525 164.949C140.21 165.23 140.963 165.301 141.689 165.153C142.415 165.006 143.08 164.646 143.601 164.12C144.122 163.593 144.475 162.924 144.616 162.197C144.756 161.47 144.677 160.718 144.39 160.035C144.102 159.353 143.618 158.771 143 158.364C142.381 157.957 141.656 157.743 140.915 157.748C140.175 157.754 139.452 157.979 138.84 158.396C138.023 158.952 137.459 159.809 137.271 160.779C137.084 161.75 137.288 162.755 137.84 163.576Z" fill="#1D1D1B" stroke="#1D1D1B" stroke-width="0.5" stroke-miterlimit="10"/>
<path d="M137.55 168.256L137.29 168.386L136.19 166.336C136.27 167.257 136.029 168.177 135.508 168.94C134.986 169.704 134.216 170.263 133.329 170.522C132.442 170.782 131.492 170.726 130.641 170.365C129.79 170.003 129.091 169.358 128.662 168.539C128.233 167.721 128.101 166.778 128.288 165.873C128.475 164.968 128.97 164.155 129.689 163.574C130.408 162.992 131.306 162.678 132.23 162.684C133.155 162.689 134.049 163.015 134.76 163.606L132.03 158.406L132.31 158.266L137.55 168.256ZM130.45 163.396C129.795 163.733 129.255 164.258 128.899 164.903C128.542 165.548 128.386 166.284 128.448 167.018C128.511 167.752 128.79 168.451 129.25 169.026C129.711 169.601 130.331 170.027 131.034 170.249C131.736 170.471 132.489 170.479 133.196 170.273C133.904 170.067 134.534 169.655 135.007 169.09C135.48 168.525 135.774 167.833 135.853 167.1C135.932 166.368 135.792 165.628 135.45 164.976C134.986 164.113 134.205 163.465 133.271 163.17C132.337 162.875 131.325 162.956 130.45 163.396Z" fill="#1D1D1B" stroke="#1D1D1B" stroke-width="0.5" stroke-miterlimit="10"/>
<path d="M125.97 167.396C125.602 166.985 125.107 166.707 124.564 166.608C124.021 166.508 123.46 166.592 122.97 166.846C121.65 167.386 121.17 168.306 121.51 169.136C122.01 170.346 123.14 170.216 125.03 170.286C125.94 170.286 127.16 170.286 127.6 171.396C127.747 171.9 127.69 172.441 127.441 172.903C127.192 173.365 126.772 173.711 126.27 173.866C125.778 174.109 125.212 174.158 124.686 174.002C124.159 173.846 123.711 173.498 123.43 173.026L123.72 172.906C123.966 173.304 124.352 173.595 124.802 173.721C125.253 173.847 125.734 173.799 126.15 173.586C126.577 173.462 126.939 173.176 127.157 172.789C127.376 172.402 127.434 171.945 127.32 171.516C126.9 170.516 125.7 170.636 124.15 170.566C123.07 170.516 121.77 170.566 121.22 169.246C120.82 168.246 121.38 167.166 122.85 166.556C123.41 166.279 124.047 166.201 124.658 166.334C125.268 166.466 125.815 166.802 126.21 167.286L125.97 167.396Z" fill="#1D1D1B" stroke="#1D1D1B" stroke-width="0.5" stroke-miterlimit="10"/>
<path d="M110.92 173.346C104.51 172.026 97.6 168.426 91.22 168.426C81.98 168.426 71.66 175.946 63.33 173.236C54.69 170.436 50.79 158.236 43.6 152.966C36.41 147.696 23.51 147.716 18.22 140.446C12.93 133.176 16.95 121.096 14.15 112.446C11.44 104.116 1 96.6457 1 87.4457C1 78.2457 11.44 70.7357 14.15 62.4457C16.95 53.8057 12.99 41.6358 18.23 34.4458C23.47 27.2558 36.34 27.2158 43.6 21.9358C50.86 16.6558 54.69 4.39576 63.33 1.58576C71.67 -1.11424 81.98 6.39575 91.22 6.39575C94.7688 6.22261 98.2698 5.50419 101.6 4.26575" stroke="#1D1D1B" stroke-miterlimit="10"/>
<path d="M101.6 4.26564C105.85 2.88564 110.1 1.26564 114.07 1.03564" stroke="#1D1D1B" stroke-miterlimit="10"/>
</svg>
