<svg width="189" height="175" viewBox="0 0 189 175" fill="none" xmlns="http://www.w3.org/2000/svg">
<path d="M161.19 25.9102L161.37 26.1402L159.56 27.6102C160.448 27.3528 161.398 27.411 162.248 27.7749C163.098 28.1387 163.795 28.7858 164.222 29.606C164.649 30.4263 164.778 31.369 164.588 32.2738C164.398 33.1787 163.901 33.9898 163.18 34.5692C162.46 35.1486 161.561 35.4605 160.636 35.4519C159.712 35.4432 158.819 35.1146 158.109 34.5219C157.399 33.9291 156.917 33.1089 156.744 32.2006C156.571 31.2924 156.718 30.3523 157.16 29.5402L152.59 33.2102L152.4 32.9702L161.19 25.9102ZM157.79 33.8102C158.251 34.383 158.871 34.8065 159.572 35.0272C160.273 35.248 161.024 35.256 161.729 35.0504C162.435 34.8448 163.064 34.4347 163.537 33.8719C164.01 33.3091 164.305 32.6188 164.386 31.8882C164.467 31.1576 164.33 30.4194 163.991 29.7668C163.653 29.1142 163.129 28.5765 162.485 28.2215C161.842 27.8665 161.107 27.7102 160.375 27.7722C159.642 27.8343 158.945 28.1119 158.37 28.5702C157.603 29.1915 157.112 30.0901 157.004 31.071C156.895 32.052 157.178 33.0361 157.79 33.8102Z" fill="#1D1D1B" stroke="#1D1D1B" stroke-width="0.5" stroke-miterlimit="10"/>
<path d="M168.27 42.5902L164.27 36.3202C163.864 36.5719 163.513 36.9031 163.239 37.2939C162.965 37.6847 162.772 38.1269 162.673 38.594C162.574 39.0611 162.571 39.5435 162.663 40.012C162.755 40.4805 162.941 40.9254 163.21 41.3202C163.539 41.8969 164.035 42.3598 164.634 42.6474C165.232 42.935 165.904 43.0336 166.56 42.9302L166.66 43.2202C165.938 43.3404 165.196 43.2383 164.534 42.9276C163.871 42.6168 163.319 42.112 162.95 41.4802C162.362 40.5877 162.153 39.4984 162.369 38.452C162.585 37.4055 163.207 36.4876 164.1 35.9002C164.992 35.3127 166.081 35.1038 167.128 35.3195C168.174 35.5352 169.092 36.1577 169.68 37.0502C169.959 37.4948 170.145 37.991 170.228 38.5092C170.311 39.0274 170.289 39.5571 170.163 40.0666C170.037 40.5761 169.81 41.0551 169.495 41.4749C169.18 41.8947 168.784 42.2468 168.33 42.5102L168.27 42.5902ZM164.52 36.1602L168.36 42.1602C169.132 41.632 169.668 40.8241 169.854 39.9077C170.041 38.9913 169.863 38.0381 169.36 37.2502C168.855 36.4725 168.066 35.923 167.162 35.7194C166.257 35.5157 165.309 35.6739 164.52 36.1602Z" fill="#1D1D1B" stroke="#1D1D1B" stroke-width="0.5" stroke-miterlimit="10"/>
<path d="M174.12 45.6101H173.83C173.889 45.2888 173.836 44.9568 173.68 44.6701C172.96 43.3301 171.09 43.8101 170.11 44.3201L166.04 46.4801L165.89 46.2101L172.74 42.5801L172.88 42.8401L171.6 43.5401C172.047 43.4253 172.519 43.461 172.944 43.6418C173.369 43.8226 173.722 44.1383 173.95 44.5401C174.127 44.8667 174.187 45.2445 174.12 45.6101Z" fill="#1D1D1B" stroke="#1D1D1B" stroke-width="0.5" stroke-miterlimit="10"/>
<path d="M169.76 49.8001C169.363 50.1793 169.102 50.6784 169.018 51.2206C168.933 51.7628 169.028 52.3178 169.29 52.8001C169.87 54.1001 170.81 54.5501 171.62 54.1901C172.82 53.6601 172.62 52.5201 172.67 50.6401C172.67 49.7301 172.67 48.5101 173.67 48.0301C174.171 47.8687 174.716 47.9115 175.186 48.1493C175.656 48.387 176.013 48.8006 176.18 49.3001C176.436 49.7835 176.5 50.3457 176.359 50.8741C176.218 51.4025 175.883 51.8583 175.42 52.1501L175.29 51.8701C175.68 51.6118 175.958 51.2171 176.071 50.7636C176.184 50.3102 176.123 49.8309 175.9 49.4201C175.762 48.9968 175.465 48.6441 175.07 48.4368C174.676 48.2295 174.217 48.1841 173.79 48.3101C172.79 48.7601 172.97 49.9501 172.94 51.5101C172.94 52.5901 173.02 53.8901 171.7 54.5101C170.7 54.9401 169.62 54.4201 168.97 52.9601C168.679 52.4081 168.583 51.774 168.697 51.1605C168.812 50.5471 169.13 49.9902 169.6 49.5801L169.76 49.8001Z" fill="#1D1D1B" stroke="#1D1D1B" stroke-width="0.5" stroke-miterlimit="10"/>
<path d="M174.38 55.1C175.129 54.859 175.933 54.8442 176.69 55.0575C177.447 55.2708 178.125 55.7028 178.638 56.2992C179.151 56.8957 179.477 57.6302 179.574 58.4108C179.672 59.1915 179.538 59.9837 179.187 60.6882C178.837 61.3927 178.287 61.9783 177.606 62.3717C176.924 62.7652 176.142 62.9489 175.357 62.9C174.572 62.8511 173.818 62.5717 173.191 62.0968C172.564 61.6219 172.09 60.9725 171.83 60.23C171.654 59.7261 171.58 59.1919 171.613 58.6591C171.646 58.1262 171.786 57.6054 172.024 57.1273C172.261 56.6492 172.592 56.2235 172.997 55.8753C173.402 55.5271 173.872 55.2635 174.38 55.1ZM176.85 62.47C177.549 62.2335 178.162 61.7951 178.611 61.2104C179.061 60.6257 179.327 59.9208 179.376 59.1848C179.425 58.4488 179.255 57.7148 178.887 57.0756C178.519 56.4364 177.969 55.9207 177.308 55.5936C176.647 55.2666 175.904 55.1429 175.173 55.2381C174.441 55.3334 173.754 55.6434 173.199 56.1289C172.644 56.6145 172.245 57.2537 172.053 57.9659C171.861 58.678 171.884 59.4311 172.12 60.13C172.276 60.5951 172.522 61.0248 172.844 61.3945C173.167 61.7641 173.559 62.0664 173.999 62.2839C174.438 62.5014 174.916 62.6298 175.406 62.6617C175.895 62.6936 176.386 62.6285 176.85 62.47Z" fill="#1D1D1B" stroke="#1D1D1B" stroke-width="0.5" stroke-miterlimit="10"/>
<path d="M179.45 71.11L175.1 72.11L175.03 71.81L179.38 70.81C181.5 70.33 182.19 69 181.87 67.57C181.671 66.7165 181.147 65.9742 180.409 65.5016C179.672 65.029 178.778 64.8633 177.92 65.04L173.73 65.98L173.67 65.68L181.23 63.99L181.3 64.28L179.22 64.75C179.95 64.8219 180.638 65.1288 181.178 65.6247C181.719 66.1206 182.085 66.7787 182.22 67.5C182.53 69.12 181.7 70.6 179.45 71.11Z" fill="#1D1D1B" stroke="#1D1D1B" stroke-width="0.5" stroke-miterlimit="10"/>
<path d="M183.7 76.5801C183.803 77.3702 183.668 78.1731 183.312 78.8857C182.955 79.5984 182.394 80.1884 181.7 80.5801L184.01 80.3101V80.6101L176.32 81.5301V81.2201L178.65 80.9501C177.957 80.7495 177.331 80.3651 176.839 79.8376C176.346 79.3102 176.006 78.6594 175.853 77.9541C175.701 77.2489 175.742 76.5155 175.972 75.8317C176.202 75.1478 176.613 74.539 177.161 74.0696C177.709 73.6003 178.374 73.288 179.085 73.1657C179.796 73.0435 180.527 73.1159 181.201 73.3753C181.874 73.6346 182.465 74.0713 182.91 74.639C183.355 75.2068 183.639 75.8844 183.73 76.6001L183.7 76.5801ZM176 77.4901C176.092 78.2206 176.398 78.9077 176.88 79.4646C177.361 80.0216 177.997 80.4236 178.706 80.62C179.416 80.8164 180.168 80.7984 180.867 80.5683C181.566 80.3382 182.182 79.9062 182.636 79.3268C183.091 78.7475 183.363 78.0466 183.42 77.3125C183.477 76.5784 183.315 75.844 182.955 75.2017C182.595 74.5594 182.053 74.038 181.398 73.7032C180.742 73.3683 180.002 73.2351 179.27 73.3201C178.779 73.3746 178.304 73.5261 177.872 73.7659C177.439 74.0058 177.059 74.329 176.753 74.717C176.447 75.105 176.221 75.55 176.088 76.026C175.956 76.5021 175.919 76.9997 175.98 77.4901H176Z" fill="#1D1D1B" stroke="#1D1D1B" stroke-width="0.5" stroke-miterlimit="10"/>
<path d="M176.35 84.05V83.74L187.83 83.24V83.54L176.35 84.05Z" fill="#1D1D1B" stroke="#1D1D1B" stroke-width="0.5" stroke-miterlimit="10"/>
<path d="M178.17 90.81C177.647 90.9612 177.189 91.2801 176.866 91.7173C176.542 92.1546 176.372 92.6861 176.38 93.2299C176.29 94.65 176.91 95.4899 177.8 95.5399C179.11 95.6299 179.49 94.5399 180.38 92.8799C180.81 92.0799 181.33 90.98 182.5 91.05C183.02 91.1382 183.484 91.4284 183.791 91.8573C184.099 92.2862 184.224 92.8191 184.14 93.34C184.142 93.8872 183.936 94.4149 183.566 94.8173C183.195 95.2197 182.686 95.4671 182.14 95.5099V95.21C182.604 95.1601 183.033 94.9386 183.342 94.5889C183.651 94.2392 183.818 93.7865 183.81 93.3199C183.855 93.0998 183.855 92.8729 183.812 92.6526C183.768 92.4322 183.681 92.2228 183.555 92.0365C183.429 91.8503 183.268 91.691 183.08 91.568C182.892 91.445 182.681 91.3606 182.46 91.3199C181.36 91.2499 180.97 92.3899 180.22 93.7599C179.7 94.7099 179.22 95.9 177.76 95.81C176.7 95.74 175.95 94.76 176.05 93.17C176.046 92.5454 176.253 91.9378 176.638 91.4459C177.023 90.954 177.563 90.6065 178.17 90.46V90.81Z" fill="#1D1D1B" stroke="#1D1D1B" stroke-width="0.5" stroke-miterlimit="10"/>
<path d="M179.35 104.32L174.94 103.65L174.99 103.35L179.39 104.01C181.54 104.34 182.67 103.35 182.89 101.89C183.012 101.022 182.789 100.141 182.27 99.4345C181.75 98.7283 180.975 98.2531 180.11 98.1102L175.87 97.4702L175.92 97.1702L187.27 98.8902V99.1902L181.47 98.3102C182.114 98.6469 182.632 99.1814 182.949 99.8349C183.266 100.488 183.365 101.226 183.23 101.94C182.94 103.57 181.63 104.66 179.35 104.32Z" fill="#1D1D1B" stroke="#1D1D1B" stroke-width="0.5" stroke-miterlimit="10"/>
<path d="M178.44 106.05C179.199 106.257 179.879 106.684 180.397 107.276C180.915 107.868 181.246 108.599 181.351 109.379C181.455 110.158 181.327 110.951 180.983 111.659C180.639 112.366 180.094 112.956 179.416 113.355C178.738 113.754 177.958 113.945 177.173 113.903C176.387 113.861 175.632 113.589 175 113.119C174.369 112.65 173.89 112.006 173.623 111.266C173.356 110.526 173.313 109.724 173.5 108.96C173.77 107.92 174.442 107.029 175.368 106.484C176.294 105.938 177.399 105.782 178.44 106.05ZM176.44 113.58C177.156 113.775 177.914 113.753 178.618 113.516C179.322 113.279 179.939 112.838 180.391 112.249C180.843 111.661 181.11 110.95 181.157 110.209C181.204 109.468 181.03 108.73 180.656 108.089C180.282 107.447 179.726 106.932 179.058 106.607C178.39 106.283 177.64 106.165 176.905 106.268C176.17 106.371 175.482 106.691 174.929 107.186C174.376 107.682 173.983 108.33 173.8 109.05C173.565 110.003 173.715 111.01 174.216 111.854C174.718 112.697 175.531 113.31 176.48 113.56L176.44 113.58Z" fill="#1D1D1B" stroke="#1D1D1B" stroke-width="0.5" stroke-miterlimit="10"/>
<path d="M179.34 117.28L179.23 117.55L177.05 116.73C177.792 117.351 178.284 118.219 178.434 119.175C178.585 120.13 178.384 121.108 177.869 121.927C177.354 122.746 176.56 123.35 175.633 123.628C174.707 123.907 173.711 123.84 172.83 123.44C171.9 123.154 171.106 122.539 170.596 121.71C170.087 120.881 169.897 119.895 170.062 118.936C170.228 117.977 170.737 117.111 171.495 116.501C172.253 115.89 173.208 115.577 174.18 115.62L168.7 113.51L168.81 113.22L179.34 117.28ZM170.8 118.28C170.537 118.966 170.482 119.714 170.644 120.431C170.805 121.148 171.175 121.801 171.707 122.307C172.239 122.814 172.909 123.152 173.633 123.278C174.357 123.404 175.102 123.314 175.774 123.017C176.446 122.721 177.016 122.232 177.41 121.612C177.805 120.993 178.008 120.27 177.992 119.536C177.977 118.801 177.744 118.088 177.324 117.485C176.904 116.883 176.314 116.418 175.63 116.15C174.704 115.8 173.678 115.83 172.774 116.233C171.869 116.635 171.16 117.378 170.8 118.3V118.28Z" fill="#1D1D1B" stroke="#1D1D1B" stroke-width="0.5" stroke-miterlimit="10"/>
<path d="M175.34 127.17L175.2 127.43L173.14 126.37C173.73 127.081 174.056 127.975 174.062 128.9C174.068 129.824 173.753 130.722 173.172 131.441C172.59 132.159 171.778 132.655 170.873 132.842C169.967 133.029 169.025 132.897 168.206 132.468C167.387 132.039 166.742 131.34 166.381 130.489C166.019 129.638 165.964 128.688 166.223 127.801C166.483 126.914 167.042 126.144 167.805 125.622C168.569 125.101 169.489 124.86 170.41 124.94L165.21 122.22L165.35 121.95L175.34 127.17ZM166.74 127.22C166.395 127.871 166.251 128.61 166.326 129.344C166.402 130.077 166.694 130.771 167.165 131.338C167.636 131.905 168.264 132.32 168.971 132.529C169.678 132.738 170.431 132.733 171.135 132.513C171.838 132.294 172.461 131.87 172.924 131.296C173.386 130.722 173.668 130.024 173.732 129.289C173.797 128.555 173.642 127.818 173.288 127.172C172.933 126.526 172.394 125.999 171.74 125.66C170.863 125.206 169.843 125.116 168.9 125.408C167.957 125.699 167.167 126.35 166.7 127.22H166.74Z" fill="#1D1D1B" stroke="#1D1D1B" stroke-width="0.5" stroke-miterlimit="10"/>
<path d="M163.5 132.57L163.66 132.31L170.25 136.39L170.09 136.65L163.5 132.57ZM172.09 137.26C172.175 137.315 172.235 137.402 172.258 137.501C172.28 137.6 172.263 137.703 172.21 137.79C172.169 137.853 172.111 137.902 172.043 137.932C171.974 137.962 171.898 137.971 171.824 137.958C171.751 137.945 171.683 137.91 171.629 137.859C171.574 137.807 171.537 137.741 171.52 137.668C171.504 137.595 171.509 137.518 171.536 137.449C171.562 137.379 171.609 137.318 171.67 137.275C171.731 137.231 171.803 137.207 171.878 137.204C171.952 137.201 172.026 137.221 172.09 137.26Z" fill="#1D1D1B" stroke="#1D1D1B" stroke-width="0.5" stroke-miterlimit="10"/>
<path d="M162.1 142.51L158.47 139.92L158.65 139.67L162.28 142.26C164.05 143.52 165.51 143.15 166.36 141.95C166.864 141.231 167.065 140.344 166.921 139.478C166.777 138.612 166.299 137.837 165.59 137.32L162.1 134.83L162.28 134.58L168.59 139.08L168.42 139.32L166.7 138.05C167.114 138.638 167.33 139.342 167.318 140.061C167.305 140.781 167.064 141.477 166.63 142.05C165.7 143.47 163.99 143.85 162.1 142.51Z" fill="#1D1D1B" stroke="#1D1D1B" stroke-width="0.5" stroke-miterlimit="10"/>
<path d="M152.11 145.23C151.01 144.28 151.25 142.72 152.49 141.3C153.73 139.88 155.23 139.42 156.33 140.38C156.65 140.697 156.88 141.095 156.996 141.53C157.112 141.966 157.11 142.425 156.99 142.86C157.44 142.58 157.84 142.52 158.15 142.79C158.297 142.96 158.388 143.171 158.411 143.395C158.434 143.618 158.389 143.843 158.28 144.04C158.759 143.861 159.278 143.815 159.782 143.906C160.285 143.998 160.754 144.224 161.14 144.56C161.722 145.096 162.068 145.841 162.104 146.631C162.139 147.421 161.861 148.194 161.33 148.78C161.013 149.15 160.616 149.444 160.17 149.64L159.1 151.1L158.87 150.9L159.68 149.8C159.235 149.911 158.77 149.913 158.324 149.805C157.878 149.697 157.465 149.482 157.12 149.18C156.54 148.642 156.195 147.897 156.161 147.107C156.128 146.317 156.408 145.545 156.94 144.96C157.223 144.641 157.562 144.377 157.94 144.18C158.17 143.67 158.18 143.18 157.94 143.02C157.7 142.86 157.02 143.08 156.25 143.96C154.92 145.5 153.33 146.29 152.11 145.23ZM152.31 145C153.4 145.95 154.83 145.14 156.03 143.76C156.217 143.542 156.418 143.334 156.63 143.14C156.775 142.711 156.805 142.252 156.717 141.808C156.63 141.364 156.427 140.951 156.13 140.61C155.13 139.75 153.81 140.25 152.72 141.5C151.63 142.75 151.33 144.15 152.31 145.05V145ZM157.17 145.16C156.857 145.563 156.668 146.049 156.628 146.557C156.588 147.066 156.698 147.575 156.945 148.022C157.191 148.469 157.563 148.834 158.015 149.072C158.466 149.309 158.978 149.409 159.485 149.36C159.993 149.31 160.475 149.112 160.872 148.791C161.269 148.47 161.563 148.04 161.717 147.554C161.872 147.068 161.881 146.547 161.743 146.055C161.605 145.564 161.326 145.124 160.94 144.79C160.67 144.563 160.357 144.392 160.02 144.288C159.683 144.184 159.328 144.148 158.977 144.182C158.626 144.217 158.285 144.321 157.975 144.489C157.665 144.657 157.391 144.885 157.17 145.16Z" fill="#1D1D1B" stroke="#1D1D1B" stroke-width="0.5" stroke-miterlimit="10"/>
<path d="M110.92 173.31C104.51 171.99 97.61 168.39 91.22 168.39C81.99 168.39 71.67 175.91 63.34 173.2C54.7 170.4 50.79 158.2 43.6 152.93C36.41 147.66 23.51 147.68 18.23 140.41C12.95 133.14 16.96 121.06 14.15 112.41C11.45 104.08 1 96.6102 1 87.4102C1 78.2102 11.45 70.7002 14.15 62.4102C16.96 53.7702 13 41.6002 18.23 34.4102C23.46 27.2202 36.34 27.1802 43.6 21.9002C50.86 16.6202 54.7 4.43018 63.34 1.62018C71.67 -1.07982 81.99 6.43018 91.22 6.43018C94.769 6.25893 98.2703 5.54046 101.6 4.30017" stroke="#1D1D1B" stroke-miterlimit="10"/>
<path d="M138.84 152.93C131.65 158.16 127.75 170.4 119.11 173.21C116.435 173.953 113.612 173.988 110.92 173.31" stroke="#1D1D1B" stroke-miterlimit="10"/>
<path d="M114.08 1.05002C115.766 0.917769 117.463 1.10436 119.08 1.60002C127.72 4.41002 131.62 16.65 138.81 21.88" stroke="#1D1D1B" stroke-miterlimit="10"/>
<path d="M101.6 4.23C105.86 2.85 110.1 1.23 114.08 1" stroke="#1D1D1B" stroke-miterlimit="10"/>
<path d="M78.4996 58.6101L53.9296 55.3801L48.6396 131.78L119.14 132.81L118.11 102.56L75.5696 114.11L61.4397 63.4801L78.4996 58.6101Z" fill="#E8AEBD" stroke="#1D1D1B" stroke-miterlimit="10"/>
<path d="M61.4399 63.4799L120.47 46.7L134.16 98.22L75.5699 114.11L61.4399 63.4799Z" fill="#E8AEBD" stroke="#1D1D1B" stroke-miterlimit="10"/>
<path d="M79.61 58.3201C73.06 36.8501 92.66 31.3201 99.21 52.8001" stroke="#1D1D1B" stroke-miterlimit="10"/>
<path d="M73.1899 58.0501C74.3399 35.6401 94.6499 31.8801 93.4899 54.2901" stroke="#1D1D1B" stroke-miterlimit="10"/>
</svg>
